<svg xmlns="http://www.w3.org/2000/svg">
<defs>
<font id="SVN-Aptimabold" horiz-adv-x="1028" >
  <font-face 
    font-family="SVN-Aptima"
    font-weight="700"
    font-stretch="normal"
    units-per-em="2048"
    panose-1="2 4 6 3 5 5 6 2 2 4"
    ascent="1638"
    descent="-410"
    x-height="983"
    cap-height="1397"
    bbox="-705 -541 4553 2266"
    underline-thickness="109"
    underline-position="-359"
    unicode-range="U+0020-2122"
  />
<missing-glyph horiz-adv-x="4653" 
d="M788 1681v510h343v-61h-274v-157h236v-61h-236v-231h-69zM1253 1865q0 -72 30 -106.5t76 -34.5t77 34.5t31 106.5q0 69 -31 104.5t-77 35.5t-76 -35.5t-30 -104.5zM1189 1865q0 104 56 151q45 42 114 42q37 0 68.5 -13t54.5 -37t36 -59t13 -79q0 -52 -12.5 -89t-35.5 -61
t-54.5 -35t-69.5 -11q-78 0 -124 48.5t-46 142.5zM1608 1681v369h58v-53q41 61 115 61q56 0 85 -27t37 -63q2 -10 3.5 -24.5t1.5 -36.5v-226h-64v223q0 54 -19.5 77.5t-57.5 23.5q-20 0 -37.5 -6t-30 -20t-20 -37.5t-7.5 -58.5v-202h-64zM2149 1679q-14 -2 -25.5 -3.5
t-21.5 -1.5q-27 5 -44 8t-27 13t-13.5 31t-3.5 62v214h-45v48h45v90l64 38v-128h63v-48h-63v-217q0 -18 1.5 -28t5.5 -15t10.5 -6t16.5 -1h29zM2444 1851q4 -56 40 -86t106 -30q62 0 94.5 23t32.5 61q0 24 -12 41t-44 31q-10 4 -33 10t-57 14t-59 16t-39 16q-40 18 -57 45.5
t-17 65.5q0 29 12.5 54.5t36 45t56.5 30.5t75 11q45 0 80.5 -11.5t60.5 -31.5t39 -47.5t16 -60.5l-69 -3q-11 93 -124 93q-62 0 -88 -22.5t-26 -54.5q0 -27 18 -45q11 -11 35 -19t66 -18q82 -16 112 -32q46 -18 66.5 -50t20.5 -72q0 -34 -14 -61.5t-39 -47.5t-60 -31
t-78 -11q-100 0 -157.5 45t-57.5 130zM3022 1681l-193 510h74l130 -372q8 -22 14 -42l12 -40q6 22 14 42l16 40l140 372h69l-202 -510h-74zM3356 1681v510h72l257 -398v398h69v-510h-74l-255 396v-396h-69zM128 1098q0 -70 29 -104t71 -34t71.5 33t29.5 99q0 78 -30.5 113.5
t-72.5 35.5t-70 -34.5t-28 -108.5zM327 917v45q-37 -53 -104 -53q-35 0 -64 14t-50 39t-33 60t-12 78q0 42 10.5 77.5t30.5 61.5t48.5 40.5t64.5 14.5q34 0 59.5 -14.5t43.5 -38.5v186h64v-510h-58zM725 917v53q-23 -29 -52 -45t-65 -16q-56 0 -85 25.5t-37 65.5

<glyph glyph-name=".notdef" horiz-adv-x="4653" 
d="M788 1681v510h343v-61h-274v-157h236v-61h-236v-231h-69zM1253 1865q0 -72 30 -106.5t76 -34.5t77 34.5t31 106.5q0 69 -31 104.5t-77 35.5t-76 -35.5t-30 -104.5zM1189 1865q0 104 56 151q45 42 114 42q37 0 68.5 -13t54.5 -37t36 -59t13 -79q0 -52 -12.5 -89t-35.5 -61
t-54.5 -35t-69.5 -11q-78 0 -124 48.5t-46 142.5zM1608 1681v369h58v-53q41 61 115 61q56 0 85 -27t37 -63q2 -10 3.5 -24.5t1.5 -36.5v-226h-64v223q0 54 -19.5 77.5t-57.5 23.5q-20 0 -37.5 -6t-30 -20t-20 -37.5t-7.5 -58.5v-202h-64zM2149 1679q-14 -2 -25.5 -3.5
t-21.5 -1.5q-27 5 -44 8t-27 13t-13.5 31t-3.5 62v214h-45v48h45v90l64 38v-128h63v-48h-63v-217q0 -18 1.5 -28t5.5 -15t10.5 -6t16.5 -1h29zM2444 1851q4 -56 40 -86t106 -30q62 0 94.5 23t32.5 61q0 24 -12 41t-44 31q-10 4 -33 10t-57 14t-59 16t-39 16q-40 18 -57 45.5
t-17 65.5q0 29 12.5 54.5t36 45t56.5 30.5t75 11q45 0 80.5 -11.5t60.5 -31.5t39 -47.5t16 -60.5l-69 -3q-11 93 -124 93q-62 0 -88 -22.5t-26 -54.5q0 -27 18 -45q11 -11 35 -19t66 -18q82 -16 112 -32q46 -18 66.5 -50t20.5 -72q0 -34 -14 -61.5t-39 -47.5t-60 -31
t-78 -11q-100 0 -157.5 45t-57.5 130zM3022 1681l-193 510h74l130 -372q8 -22 14 -42l12 -40q6 22 14 42l16 40l140 372h69l-202 -510h-74zM3356 1681v510h72l257 -398v398h69v-510h-74l-255 396v-396h-69zM128 1098q0 -70 29 -104t71 -34t71.5 33t29.5 99q0 78 -30.5 113.5
t-72.5 35.5t-70 -34.5t-28 -108.5zM327 917v45q-37 -53 -104 -53q-35 0 -64 14t-50 39t-33 60t-12 78q0 42 10.5 77.5t30.5 61.5t48.5 40.5t64.5 14.5q34 0 59.5 -14.5t43.5 -38.5v186h64v-510h-58zM725 917v53q-23 -29 -52 -45t-65 -16q-56 0 -85 25.5t-37 65.5
q-2 8 -2.5 21.5t-0.5 33.5v231h64v-207q0 -24 0.5 -40t2.5 -26q5 -24 23 -37.5t48 -13.5q46 0 72 28.5t26 96.5v199h64v-369h-58zM669 1360h-48l-79 99h82zM878 917v369h59v-53q40 61 114 61q56 0 85 -27t37 -63q2 -10 3.5 -24.5t1.5 -36.5v-226h-63v223q0 54 -19.5 77.5
t-57.5 23.5q-20 0 -37.5 -6t-30.5 -20t-20.5 -37.5t-7.5 -58.5v-202h-64zM1311 1106q0 -72 28 -104t70 -32t71.5 32t29.5 104q0 66 -29.5 100.5t-71.5 34.5t-70 -34.5t-28 -100.5zM1324 883q2 -16 6.5 -27.5t14.5 -17.5q20 -16 61 -16q42 0 65 15.5t31 45.5q5 22 5 79
q-22 -22 -46.5 -33.5t-54.5 -11.5q-39 0 -68.5 14.5t-49.5 40t-30.5 59t-10.5 72.5q0 40 11 74.5t31 60.5t49.5 41t67.5 15q62 0 107 -53v45h58v-318q1 -63 -9 -100t-31 -57.5t-52.5 -28.5t-74.5 -13q-64 0 -104.5 29t-38.5 93zM1921 1103q0 -69 16 -95q28 -48 80 -48
q21 0 39.5 8.5t32.5 26t22.5 43.5t8.5 62q0 72 -29 108t-69 36q-42 0 -71.5 -35.5t-29.5 -105.5zM1924 917h-61v510h63v-183q18 26 43.5 38t57.5 12q34 0 62.5 -14t49.5 -39t33 -59.5t12 -75.5q0 -48 -13 -85t-34.5 -61.5t-50.5 -37.5t-61 -13q-34 0 -58.5 13.5t-42.5 39.5
v-45zM2500 1103q-18 -8 -44 -13.5t-60 -10.5q-27 -5 -44 -10t-27 -12.5t-13.5 -17t-3.5 -23.5q0 -26 18.5 -42.5t56.5 -16.5q34 0 63 14.5t43 44.5q8 21 8 63zM2502 962q-34 -29 -65.5 -41t-69.5 -12q-62 0 -93.5 29t-31.5 75q0 44 26 69t62 37q10 2 24 4t31 4q76 12 112 24
q2 6 2.5 10t0.5 6q0 37 -19 53q-26 21 -72 21t-66.5 -15.5t-28.5 -53.5l-64 8q12 56 50.5 85t114.5 29q37 0 62 -6.5t41 -17.5t24.5 -26t12.5 -32q2 -10 4 -24t2 -34v-85q0 -43 0.5 -68.5t2 -41t5 -24.5t10.5 -18h-64q-6 11 -8.5 21t-4.5 24zM2407 1406q21 0 24 2
q17 4 21 13q0 10 -11 14q-16 8 -48 8q-6 0 -13.5 -0.5t-17.5 -2.5l-3 35q6 2 18 2h30q22 -2 39.5 -6t31.5 -10q27 -11 32 -37q0 -36 -64 -40v-18h-39v40zM2656 917v369h58v-53q41 61 115 61q56 0 85 -27t37 -63q2 -10 3.5 -24.5t1.5 -36.5v-226h-64v223q0 54 -19.5 77.5
t-57.5 23.5q-20 0 -37.5 -6t-30 -20t-20 -37.5t-7.5 -58.5v-202h-64zM3089 1106q0 -72 28 -104t70 -32t71 32t29 104q0 66 -29 100.5t-71 34.5t-70 -34.5t-28 -100.5zM3102 883q3 -34 21 -45q19 -16 61 -16t65 15.5t31 45.5q2 10 3.5 30t1.5 49q-22 -22 -46.5 -33.5
t-54.5 -11.5q-39 0 -68.5 14.5t-49.5 40t-30.5 59t-10.5 72.5q0 40 10.5 74.5t31 60.5t50 41t67.5 15q62 0 106 -53v45h59v-318q1 -63 -9.5 -100t-31.5 -57.5t-52.5 -28.5t-74.5 -13q-64 0 -104.5 29t-38.5 93zM3640 917v369h59v-53q18 26 45.5 43.5t65.5 17.5
q42 0 67.5 -17t36.5 -47q43 64 116 64q114 0 114 -125v-252h-63v231q0 51 -15.5 72t-51.5 21q-38 0 -64 -26.5t-26 -84.5v-213h-63v239q0 42 -15 63.5t-49 21.5q-44 0 -68.5 -30.5t-24.5 -102.5v-191h-64zM4473 1103q-17 -8 -43 -13.5t-60 -10.5q-27 -5 -44 -10t-27 -12.5
t-13.5 -17t-3.5 -23.5q0 -26 18.5 -42.5t56.5 -16.5q34 0 63 14.5t43 44.5q8 21 8 63zM4476 962q-34 -29 -65.5 -41t-69.5 -12q-62 0 -93.5 29t-31.5 75q0 44 26 69t62 37q10 2 23.5 4t31.5 4q76 12 112 24q2 6 2 10v6q0 38 -18 53q-26 21 -72 21t-66.5 -15.5t-28.5 -53.5
l-64 8q12 56 50.5 85t114.5 29q37 0 62 -6.5t41 -17.5t24.5 -26t12.5 -32q2 -10 3.5 -24t1.5 -34v-85q0 -43 0.5 -68.5t2 -41t5.5 -24.5t11 -18h-64q-6 11 -8.5 21t-4.5 24zM4288 1350q-2 32 17.5 53t51.5 21q10 0 25 -5.5t33 -15.5q21 -8 32 -8q10 0 17 7.5t9 21.5h46
q-4 -74 -69 -74q-11 0 -26 4t-33 12q-12 6 -20 9.5t-14 3.5q-29 0 -24 -29h-45zM1364 535h69v-294q0 -54 -10 -95.5t-33.5 -70t-61.5 -43t-94 -14.5q-55 0 -93 12.5t-61.5 39.5t-34 69t-10.5 102v294h69v-291q0 -47 6.5 -78t21.5 -50t39 -26.5t58 -7.5q36 0 61.5 7.5
t42 25.5t24 49.5t7.5 79.5v291zM1539 26v369h58v-53q20 29 48.5 45t66.5 16q55 0 84.5 -27.5t37.5 -63.5q2 -10 3.5 -24t1.5 -37v-225h-64v223q0 54 -19.5 77.5t-57.5 23.5q-20 0 -37.5 -6t-30 -20.5t-20 -38t-7.5 -57.5v-202h-64zM1934 26v369h64v-369h-64zM1934 464v71h64
v-71h-64zM2396 153q-10 -64 -53 -99.5t-101 -35.5q-78 0 -122.5 49t-44.5 139q0 94 44.5 145.5t120.5 51.5q62 0 98 -30.5t50 -86.5l-64 -8q-10 34 -31 54t-51 20q-48 0 -75.5 -34.5t-27.5 -108.5t27 -107.5t74 -33.5q77 0 92 93zM2489 209q0 -72 30 -106.5t76 -34.5
t77.5 34.5t31.5 106.5q0 70 -31.5 105.5t-77.5 35.5t-76 -35.5t-30 -105.5zM2425 209q0 103 56 151q47 43 114 43q37 0 68.5 -13t54.5 -37.5t36 -59.5t13 -79q0 -52 -12.5 -89t-35.5 -61t-54.5 -35t-69.5 -11q-78 0 -124 48.5t-46 142.5zM2884 206q0 -69 29.5 -103.5
t71.5 -34.5t71.5 33.5t29.5 99.5q0 78 -31 113.5t-73 35.5q-41 0 -69.5 -35t-28.5 -109zM3083 26v45q-37 -53 -103 -53q-35 0 -64 14t-50 39t-33 60t-12 78q0 42 10.5 77.5t30.5 61.5t48 40.5t64 14.5q35 0 60.5 -15t43.5 -38v185h64v-509h-59zM3497 244q-2 23 -9 41t-17 30
q-34 37 -80 37t-76.5 -30t-32.5 -78h215zM3558 137q-16 -58 -58 -88.5t-106 -30.5q-82 0 -130 49t-48 139q0 94 47 145.5t125 51.5q39 0 71 -13.5t54.5 -39t35 -61t12.5 -80.5q0 -2 -0.5 -6t-2.5 -10h-278q2 -62 34 -93.5t80 -31.5q38 0 62 17.5t38 59.5z" />
    <glyph glyph-name=".null" horiz-adv-x="0" 
 />
    <glyph glyph-name="nonmarkingreturn" horiz-adv-x="571" 
 />
    <glyph glyph-name="space" unicode=" " horiz-adv-x="590" 
 />
    <glyph glyph-name="exclam" unicode="!" horiz-adv-x="700" 
d="M176 139q0 68 50 118t118 50t118 -48t50 -120q0 -71 -48 -119.5t-120 -48.5q-68 0 -118 50.5t-50 117.5zM369 455h-58q-24 114 -53 273t-53 304q-17 76 -25 131.5t-8 106.5q0 69 49 116.5t123 47.5q76 0 120 -48.5t44 -128.5q0 -43 -17.5 -138t-31.5 -177l-45 -233
q-13 -64 -24 -122.5t-21 -131.5z" />
    <glyph glyph-name="quotedbl" unicode="&#x22;" horiz-adv-x="700" 
d="M254 1270v-377q0 -43 -19.5 -68.5t-58.5 -25.5q-82 0 -82 94l4 29v348l-4 49q0 115 82 115q78 0 78 -123v-41zM590 1270v-377q0 -43 -19.5 -68.5t-58.5 -25.5q-86 0 -86 86l4 37v348l-4 37q0 127 86 127q78 0 78 -127v-37z" />
    <glyph glyph-name="numbersign" unicode="#" horiz-adv-x="1159" 
d="M1020 590v-152h-213l-66 -438h-155l65 438h-221l-65 -438h-152l66 438h-213v152h237l33 213h-213v151h233l62 406h155l-61 -406h217l62 406h151l-57 -406h188v-151h-213l-33 -213h193zM709 803h-222l-32 -213h221z" />
    <glyph glyph-name="dollar" unicode="$" horiz-adv-x="1159" 
d="M496 74v487q-205 39 -299 115q-119 96 -119 291q0 143 76.5 240.5t218.5 140.5q57 16 123 24v164l57 -4l61 4v-164q107 0 197 -25.5t164 -84.5q-27 -60 -41 -99q-23 -55 -33 -106h-29q-26 86 -96.5 143t-161.5 70v-443q209 -43 312 -122q135 -105 135 -295
q0 -187 -132 -313t-315 -126v-221q-32 8 -61 8q-25 0 -37 -2q-14 -6 -20 -6v221q-113 0 -216.5 34t-189.5 101q25 121 49 242h41q27 -106 115 -181t201 -93zM496 864v406q-80 -8 -128.5 -63.5t-48.5 -141.5q0 -82 50 -133q41 -43 127 -68zM614 528v-454q62 0 127 59
q78 70 78 170q0 96 -78 164q-61 53 -127 61z" />
    <glyph glyph-name="percent" unicode="%" horiz-adv-x="2052" 
d="M598 -61l713 1482l53 -4l57 4l-712 -1482l-58 4zM1483 -29q-154 0 -243 91.5t-89 244.5q0 148 102.5 244t249.5 96q139 0 239.5 -85t100.5 -230q0 -164 -100.5 -262.5t-259.5 -98.5zM1491 37q92 0 127 110q20 66 20 185q0 104 -20 160q-33 90 -115 90q-90 0 -125 -103
q-22 -65 -22 -176q0 -113 18 -170q31 -96 117 -96zM537 700q-152 0 -242 90.5t-90 241.5q0 150 102.5 245t253.5 95q137 0 234 -80q106 -88 106 -231q0 -164 -102.5 -262.5t-261.5 -98.5zM549 766q90 0 125 108q22 70 22 187q0 98 -22 156q-35 90 -117 90q-90 0 -125 -101
q-22 -65 -22 -178t18 -168q31 -94 121 -94z" />
    <glyph glyph-name="ampersand" unicode="&#x26;" horiz-adv-x="1487" 
d="M750 799l24 -29l295 -360q70 79 135 188q47 76 111 201l110 -115q-129 -190 -282 -356l278 -312v-28q-32 0 -95.5 6t-96.5 6t-98.5 -6t-98.5 -6l-102 147q-84 -72 -206 -122t-228 -50q-90 0 -161 22.5t-132.5 73t-89 114t-27.5 138.5q0 146 117 262q88 89 248 160
q-76 109 -105 164q-47 92 -47 184q0 140 119 232q108 84 254 84q133 0 227 -58q113 -67 113 -192q0 -111 -82 -205q-56 -63 -180 -143zM692 872q60 48 110 124.5t50 142.5q0 65 -38 112t-101 47q-148 0 -148 -151q0 -60 45 -143q23 -41 82 -132zM508 655q-70 -49 -109 -104
q-47 -68 -47 -141q0 -97 66 -177q55 -65 135 -94q22 -10 47 -13t64 -3q49 0 110.5 24.5t97.5 61.5q-81 92 -184 219q-67 84 -180 227z" />
    <glyph glyph-name="quotesingle" unicode="'" horiz-adv-x="590" 
d="M365 1270v-377q0 -43 -19.5 -68.5t-58.5 -25.5q-82 0 -82 94l4 29v348l-4 37q0 127 82 127q78 0 78 -123v-41z" />
    <glyph glyph-name="parenleft" unicode="(" horiz-adv-x="700" 
d="M561 1548l53 -57q-145 -164 -208 -406q-54 -200 -54 -467q0 -251 56 -442q63 -219 206 -389l-57 -53q-217 186 -319.5 402t-102.5 507q0 295 105 510q98 205 321 395z" />
    <glyph glyph-name="parenright" unicode=")" horiz-adv-x="700" 
d="M123 -266l-53 53q145 168 209 408q53 200 53 469q0 251 -56 442q-63 219 -206 389l57 53q217 -190 319.5 -404t102.5 -505q0 -295 -101.5 -505t-324.5 -400z" />
    <glyph glyph-name="asterisk" unicode="*" horiz-adv-x="918" 
d="M180 1262l226 -172l-29 282l78 -4l82 4l-33 -282l225 176q21 -45 37 -73t45 -71l-262 -110l262 -111l-82 -143l-225 164l33 -279h-160l29 279l-218 -172l-57 102l-33 37l271 123l-271 106q25 33 45.5 68t36.5 76z" />
    <glyph glyph-name="plus" unicode="+" horiz-adv-x="1245" 
d="M532 610v426h177v-426h430v-176h-430v-434h-177v434h-426v176h426z" />
    <glyph glyph-name="comma" unicode="," horiz-adv-x="590" 
d="M45 -365l94 381q13 50 26 101t33.5 99t49 69.5t80.5 21.5q53 0 94 -39t41 -88q0 -39 -17 -65q-79 -119 -174 -254q-118 -166 -178 -250z" />
    <glyph glyph-name="hyphen" unicode="-" horiz-adv-x="700" 
d="M86 348v217h512v-217h-512z" />
    <glyph glyph-name="period" unicode="." horiz-adv-x="590" 
d="M283 -29q-68 0 -116 50.5t-48 117.5q0 68 48 118t116 50q69 0 120.5 -49t51.5 -119q0 -71 -50.5 -119.5t-121.5 -48.5z" />
    <glyph glyph-name="slash" unicode="/" horiz-adv-x="811" 
d="M795 1548l-619 -1814q-22 4 -40.5 6t-45.5 2q-20 0 -46 -3t-40 -5l619 1814q20 -4 39.5 -6t46.5 -2q20 0 45.5 3t40.5 5z" />
    <glyph glyph-name="zero" unicode="0" horiz-adv-x="1159" 
d="M578 1372q262 0 383 -207q96 -164 96 -448q0 -252 -39 -379t-113 -215q-127 -152 -336 -152q-131 0 -223 51.5t-155.5 161t-86 228t-22.5 260.5q0 129 23.5 261t74.5 214q133 225 398 225zM385 647q0 -319 29 -430q39 -151 159 -151q105 0 146 157q35 135 35 453
q0 338 -38 472t-138 134q-115 0 -158 -164q-35 -135 -35 -471z" />
    <glyph glyph-name="one" unicode="1" horiz-adv-x="1159" 
d="M455 -12v1159q-117 -64 -242 -123q-27 55 -82 102v17q125 41 220 80t370 174l16 -13v-1396q-24 0 -71.5 6t-71.5 6q-29 0 -67 -4t-72 -8z" />
    <glyph glyph-name="two" unicode="2" horiz-adv-x="1159" 
d="M999 0h-901v90q187 174 260 252q154 164 236 305q102 178 102 340q0 117 -53 199q-63 96 -176 96q-90 0 -148 -102q-49 -88 -49 -189l4 -8l-20 -4q-35 41 -78 78t-82 57q49 131 172 199q109 59 258 59q203 0 328 -84q147 -98 147 -293q0 -135 -77 -250q-29 -45 -84 -102
q-39 -39 -101 -94q-235 -203 -319 -287v-12h262q53 0 159.5 8t159.5 8q-6 -65 -12 -131q6 -67 12 -135z" />
    <glyph glyph-name="three" unicode="3" horiz-adv-x="1159" 
d="M369 651v103l53 -4q121 0 178 84q51 73 51 202q0 97 -35 162q-45 84 -133 84q-96 0 -143 -74q-35 -53 -53 -172h-29l-68 68q-47 47 -71 67q67 111 178 160q92 41 231 41q201 0 313.5 -84t112.5 -227q0 -125 -69 -203q-62 -70 -185 -113l-28 -12l-4 -12q0 -8 24.5 -12
t36.5 -4q139 -43 178 -72q101 -76 101 -248q0 -184 -155 -299t-370 -115q-127 0 -219 33q-110 39 -178 127q31 41 67.5 90t59.5 86l29 -4q14 -106 63 -166q60 -71 162 -71q106 0 176 96q62 86 62 194q0 176 -84 244q-64 51 -191 51h-61z" />
    <glyph glyph-name="four" unicode="4" horiz-adv-x="1159" 
d="M606 332h-536l12 98q0 21 -4 47.5t-8 50.5q53 74 157.5 230.5t169.5 257.5q123 178 152 221q49 74 86 135q31 -4 58.5 -6t68.5 -2q31 0 67.5 3t59.5 5v-819h168q-4 -29 -6 -53.5t-2 -57.5q0 -26 2 -55t6 -55h-168v-344q-25 0 -72 6t-72 6q-28 0 -66 -4t-73 -8v344z
M606 553v594l-389 -582l8 -12h381z" />
    <glyph glyph-name="five" unicode="5" horiz-adv-x="1159" 
d="M242 1360h680q-4 -31 -6.5 -58.5t-2.5 -60.5q0 -31 2.5 -61.5t6.5 -61.5h-586l-17 -356l13 -4q45 24 96 34.5t109 10.5q100 0 172.5 -20.5t142.5 -77.5q127 -109 127 -283q0 -105 -47 -192t-133 -148q-72 -51 -175.5 -81t-197.5 -30q-100 0 -191.5 28t-168.5 87
q63 92 102 209h29q24 -94 73 -154q62 -75 152 -75q133 0 199 106q55 90 55 229q0 121 -70 209q-33 39 -78 62.5t-94 23.5t-95 -22.5t-81 -59.5l-49 29z" />
    <glyph glyph-name="six" unicode="6" horiz-adv-x="1159" 
d="M860 1282l-12 -20q-27 12 -72 16t-51 4q-68 0 -127 -36t-102 -95q-31 -39 -52 -84q-12 -29 -39.5 -138.5t-27.5 -207.5l12 -8q94 106 234 106q180 0 298.5 -106.5t118.5 -286.5q0 -201 -139 -328t-344 -127q-51 0 -114.5 13.5t-102.5 35.5q-96 46 -156 136
q-55 77 -80.5 176.5t-25.5 208.5q0 213 63 395q76 215 224 330q71 53 164.5 79.5t191.5 26.5q27 0 51.5 -1t50.5 -7q4 -18 15.5 -39.5t21.5 -42.5zM381 406q0 -138 25 -213q40 -127 147 -127q94 0 145 112q39 88 39 195q0 127 -30 207q-48 120 -154 120q-94 0 -139 -104
q-33 -78 -33 -190z" />
    <glyph glyph-name="seven" unicode="7" horiz-adv-x="1159" 
d="M135 1360h934l16 -37q-202 -342 -364 -653q-189 -361 -324 -682q-67 6 -135 12q-29 0 -63.5 -4t-67.5 -8q191 291 373 583q201 324 315 527l-684 -17q2 25 7 74t5 66q0 28 -4 66t-8 73z" />
    <glyph glyph-name="eight" unicode="8" horiz-adv-x="1159" 
d="M504 688q-66 -31 -96 -135q-23 -78 -23 -172q0 -158 57 -244q47 -71 127 -71q95 0 146 114q39 88 39 197q0 61 -13.5 133t-38 109.5t-61.5 59t-76 21.5q-30 0 -61 -12zM774 758v-17q127 -18 205 -114.5t78 -225.5q0 -196 -137.5 -313t-350.5 -117q-100 0 -186 22.5
t-155.5 75t-107.5 133.5t-38 171q0 133 80 240.5t207 127.5v17q-101 18 -169.5 99t-68.5 183q0 168 139 256q119 76 299 76q101 0 169.5 -14.5t133.5 -59.5q136 -92 136 -241q0 -115 -61.5 -193t-172.5 -106zM414 1020q0 -55 5 -91t26.5 -71t53 -57.5t70.5 -22.5
q88 0 129 94q31 70 31 168q0 103 -29 162q-38 80 -131 80q-90 0 -129 -92q-26 -64 -26 -170z" />
    <glyph glyph-name="nine" unicode="9" horiz-adv-x="1159" 
d="M201 131l12 12q59 -41 84 -53q49 -24 96 -24q178 0 277 190q80 154 80 350v21l-13 4q-47 -49 -111.5 -76t-133.5 -27q-170 0 -283 101q-119 106 -119 276q0 117 28.5 196t106.5 156q62 62 141.5 88.5t178.5 26.5q123 0 222 -40t167 -128q59 -80 87 -183t28 -214
q0 -160 -35 -301q-41 -162 -119 -278.5t-213 -186.5t-276 -70q-64 0 -119 17q-25 8 -31 10t-12 26.5t-20.5 56.5t-22.5 50zM745 938q0 137 -24 215q-41 129 -148 129q-90 0 -141 -100q-43 -84 -43 -183l4 -24q0 -121 29 -201q45 -127 151 -127q95 0 140 105q32 77 32 186z
" />
    <glyph glyph-name="colon" unicode=":" horiz-adv-x="590" 
d="M287 639q-70 0 -119 49t-49 119q0 67 50 117.5t118 50.5q67 0 117.5 -48t50.5 -120q0 -68 -48.5 -118t-119.5 -50zM287 -29q-70 0 -119 49.5t-49 118.5q0 68 50 118t118 50q67 0 117.5 -48t50.5 -120q0 -69 -49.5 -118.5t-118.5 -49.5z" />
    <glyph glyph-name="semicolon" unicode=";" horiz-adv-x="590" 
d="M147 807q0 67 50.5 117.5t117.5 50.5q68 0 118 -48t50 -120q0 -68 -48 -118t-120 -50q-67 0 -117.5 50t-50.5 118zM45 -365l94 381q13 50 26 101t33.5 99t49 69.5t80.5 21.5q53 0 94 -39t41 -88q0 -39 -17 -65q-79 -119 -174 -254q-118 -166 -178 -250z" />
    <glyph glyph-name="less" unicode="&#x3c;" horiz-adv-x="1245" 
d="M328 524l815 -377v-172l-1041 471v152l1041 471v-172z" />
    <glyph glyph-name="equal" unicode="=" horiz-adv-x="1245" 
d="M1139 811v-176h-1033v176h1033zM1139 410v-177h-1033v177h1033z" />
    <glyph glyph-name="greater" unicode="&#x3e;" horiz-adv-x="1245" 
d="M98 147l815 377l-815 373v172l1045 -471v-152l-1045 -471v172z" />
    <glyph glyph-name="question" unicode="?" horiz-adv-x="918" 
d="M434 -29q-67 0 -117.5 50.5t-50.5 117.5q0 68 50.5 118t117.5 50q68 0 118 -48t50 -120q0 -71 -48 -119.5t-120 -48.5zM631 553l20 -8q-8 -21 -12 -31q-14 -33 -21 -55q-61 -8 -122 -17q-60 0 -114 17.5t-92 51.5t-63.5 82t-25.5 95q0 64 20.5 113t102.5 137l102 111
q45 55 57.5 81.5t12.5 61.5q0 63 -43 99t-109 36q-127 0 -180 -106h-29l-4 135q41 35 116 56.5t134 21.5q51 0 84 -3.5t67 -13.5q62 -18 100 -37.5t68.5 -55.5t48 -84t17.5 -93q0 -143 -162 -305t-162 -224q0 -40 32 -67t71 -27q20 0 44.5 8.5t41.5 20.5z" />
    <glyph glyph-name="at" unicode="@" horiz-adv-x="1552" 
d="M897 823q0 119 -90 119q-107 0 -182 -162q-64 -137 -64 -260q0 -61 16.5 -92t69.5 -31q78 0 158 113q92 131 92 313zM954 954l21 78h196l-135 -500q-4 -22 -8 -44.5t-4 -24.5q0 -66 45 -66q86 0 168 117q94 135 94 326q0 188 -127 321q-143 150 -385 150
q-262 0 -426 -170t-164 -445q0 -280 171 -445t444 -165q143 0 262 71.5t205 198.5h135q-90 -178 -259 -285.5t-368 -107.5q-305 0 -518 201q-219 207 -219 520t208 531.5t517 218.5q280 0 467 -179q180 -172 180 -411q0 -113 -34 -212.5t-105 -176.5q-64 -68 -146 -117
q-98 -59 -174 -59q-65 0 -103 51t-44 125q-57 -84 -100 -119q-58 -45 -138 -45q-125 0 -193.5 83t-68.5 216q0 172 129 317.5t297 145.5q62 0 113 -33q39 -25 67 -66z" />
    <glyph glyph-name="A" unicode="A" horiz-adv-x="1376" 
d="M844 418h-479q-41 -117 -58 -166q-59 -170 -86 -260q-18 2 -41.5 5t-52.5 3q-25 0 -53.5 -3t-44.5 -5l585 1421q19 -4 38.5 -4h39.5h29h22q19 4 27 4l569 -1425q-41 0 -63 2q-109 10 -113 10q-41 0 -63 -2q-109 -10 -113 -10q-72 250 -143 430zM422 545h373l-181 475z
" />
    <glyph glyph-name="B" unicode="B" horiz-adv-x="1270" 
d="M164 0v1397h528q176 0 279 -64q127 -80 127 -248q0 -137 -101 -227q-90 -80 -235 -100v-17q147 -16 239 -79q129 -91 129 -261q0 -198 -155 -307q-135 -94 -340 -94h-471zM471 1278v-483l53 -4q54 0 98 11t83 42q47 39 68.5 94t21.5 119q0 108 -58.5 168.5t-163.5 60.5
q-22 0 -51.5 -3t-50.5 -5zM471 676v-557h102q91 0 162 69q80 78 80 201q0 150 -73.5 218.5t-217.5 68.5h-53z" />
    <glyph glyph-name="C" unicode="C" horiz-adv-x="1376" 
d="M1249 242l25 -13l-45 -176q-88 -47 -191.5 -68.5t-214.5 -21.5q-336 0 -549 187q-221 192 -221 505q0 381 240 588q219 191 575 191q105 0 217.5 -28t200.5 -75l-45 -209h-29q-59 84 -151 136.5t-189 52.5q-235 0 -366 -201q-113 -174 -113 -426q0 -270 128 -434
t360 -164q96 0 195.5 43t172.5 113z" />
    <glyph glyph-name="D" unicode="D" horiz-adv-x="1618" 
d="M176 1397h701q307 0 473 -203q145 -178 145 -457q0 -340 -215 -542q-207 -195 -530 -195h-574v1397zM483 1278v-1159h172q234 0 357 131q143 153 143 491q0 279 -127 412q-119 125 -344 125h-201z" />
    <glyph glyph-name="E" unicode="E" horiz-adv-x="1270" 
d="M160 1397h942q-4 -23 -8 -53.5t-4 -36.5l12 -86q-105 10 -261.5 19t-299.5 9h-74v-442h328q96 0 145 3t154 17q-9 -45 -17 -90q0 -16 5 -40.5t12 -45.5q-54 4 -148 10.5t-151 6.5h-328v-521q178 0 349 8.5t286 20.5l-12 -86q0 -18 4 -42.5t8 -47.5h-942v1397z" />
    <glyph glyph-name="F" unicode="F" 
d="M467 668v-680q-25 0 -76 6t-76 6q-26 0 -77.5 -6t-77.5 -6v1409h782q-4 -23 -8 -53.5t-4 -36.5l12 -86q-180 16 -270 22t-205 6v-442h217q107 0 250 20q-4 -22 -8 -53t-4 -37l12 -86q-68 6 -142.5 11.5t-107.5 5.5h-217z" />
    <glyph glyph-name="G" unicode="G" horiz-adv-x="1618" 
d="M1450 623v-566q-158 -45 -287 -69.5t-258 -24.5q-350 0 -571 168q-248 188 -248 533q0 368 246 575q229 195 602 195q139 0 259 -30t232 -97q-45 -105 -57 -205h-29q-69 100 -173.5 154.5t-227.5 54.5q-246 0 -385 -199q-127 -180 -127 -457q0 -266 129 -417.5
t363 -151.5q75 0 125.5 14.5t99.5 42.5v480q26 0 77.5 -4.5t77.5 -4.5q25 0 86.5 4.5t65.5 4.5z" />
    <glyph glyph-name="H" unicode="H" horiz-adv-x="1618" 
d="M176 -12v1409q27 0 78 -6.5t78 -6.5q24 0 75.5 6.5t75.5 6.5v-557q56 0 182 -4.5t134 -4.5q51 0 177 4.5t134 4.5v557q27 0 78 -6.5t78 -6.5q24 0 75.5 6.5t75.5 6.5v-1409q-24 0 -75.5 6t-75.5 6q-27 0 -78 -6t-78 -6v688q-51 0 -155.5 6t-155.5 6q-54 0 -158 -6
t-158 -6v-688q-24 0 -75.5 6t-75.5 6q-27 0 -78 -6t-78 -6z" />
    <glyph glyph-name="I" unicode="I" horiz-adv-x="700" 
d="M188 -12v1409q25 0 76 -6.5t76 -6.5q27 0 78 6.5t78 6.5v-1409q-27 0 -78 6t-78 6q-25 0 -76 -6t-76 -6z" />
    <glyph glyph-name="J" unicode="J" horiz-adv-x="700" 
d="M516 1397v-1106q0 -139 -8 -203q-14 -111 -57 -182q-62 -105 -164 -164q-94 -53 -226 -70l-32 99q114 30 153 145q27 80 27 272v1209q24 0 75.5 -6.5t75.5 -6.5q27 0 78 6.5t78 6.5z" />
    <glyph glyph-name="K" unicode="K" horiz-adv-x="1270" 
d="M152 -12v1409q24 0 75.5 -6.5t75.5 -6.5q27 0 78 6.5t78 6.5v-643q129 153 268 319q156 189 264 324q56 -6 111 -13q20 0 49 4.5t57 8.5v-17l-336 -352l-192 -217l549 -791v-32q-25 0 -76 6t-76 6q-26 0 -77.5 -6t-77.5 -6l-463 655v-655q-27 0 -78 6t-78 6
q-24 0 -75.5 -6t-75.5 -6z" />
    <glyph glyph-name="L" unicode="L" 
d="M471 1397v-1250q133 0 250 9q151 14 221 20l-12 -86q0 -18 4 -42.5t8 -47.5h-778v1397q26 0 77.5 -6.5t77.5 -6.5q25 0 76 6.5t76 6.5z" />
    <glyph glyph-name="M" unicode="M" horiz-adv-x="1835" 
d="M922 434q75 150 153 299q117 228 162 320q80 161 160 344q43 -6 86 -13q18 0 42.5 4.5t47.5 8.5q29 -260 60.5 -536.5t56 -462t63.5 -410.5q-41 0 -80 4t-92 8q-29 0 -82 -6t-82 -6q0 200 -30.5 460.5t-59.5 497.5q-76 -155 -153 -313q-62 -127 -152 -316
q-96 -204 -150 -317l-45 4l-32 -4q-99 211 -214.5 447.5t-232.5 474.5q-20 -148 -41.5 -331t-33 -330.5t-11.5 -272.5l-98 12q-21 0 -46.5 -4t-47.5 -8q39 213 71 432q19 123 66 456.5t72 520.5q43 -6 86 -13q43 7 86 13q90 -199 149 -322q68 -143 158 -321z" />
    <glyph glyph-name="N" unicode="N" horiz-adv-x="1618" 
d="M172 -8v1405h205q442 -479 885 -959v959q30 -4 42.5 -6t38.5 -2l82 8v-1409l-176 4q-174 194 -346 389q-147 164 -342 373l-225 233v-995q-31 4 -43 6t-39 2z" />
    <glyph glyph-name="O" unicode="O" horiz-adv-x="1397" 
d="M1348 705q0 -310 -179 -521q-188 -221 -485 -221q-287 0 -457 193.5t-170 539.5q0 316 174 521q185 217 494 217q326 0 492 -246q131 -195 131 -483zM713 1311q-178 0 -275.5 -168t-97.5 -508q0 -225 80 -375q92 -174 268 -174q186 0 289 199q92 178 92 456
q0 230 -82 385q-96 185 -274 185z" />
    <glyph glyph-name="P" unicode="P" horiz-adv-x="1159" 
d="M455 606v-618q-25 0 -76 6t-76 6q-27 0 -78 -6t-78 -6v1409h504q439 0 439 -348q0 -256 -179 -359q-145 -84 -456 -84zM455 1286v-565q73 0 135 12q96 27 143 107q41 69 41 172q0 123 -55 198.5t-137 75.5h-127z" />
    <glyph glyph-name="Q" unicode="Q" horiz-adv-x="1724" 
d="M860 1311q-239 0 -354 -195q-100 -170 -100 -481q0 -227 98 -375q114 -174 332 -174q211 0 332.5 180t121.5 475q0 230 -98 385q-117 185 -332 185zM1044 -193l-221 156q-346 0 -549 191q-208 196 -208 542q0 336 235 541q225 197 571 197q340 0 549 -201t209 -528
q0 -250 -140 -438.5t-380 -266.5q274 -174 532 -311q-155 -31 -286 -115q-166 133 -312 233z" />
    <glyph glyph-name="R" unicode="R" horiz-adv-x="1270" 
d="M156 -12v1409h479q92 0 165.5 -8.5t121.5 -32.5q92 -47 136 -118t44 -177q0 -148 -86 -242t-234 -127q58 -102 129 -217q21 -33 232 -356l82 -131q-45 0 -68 2q-115 10 -121 10q-30 0 -91.5 -6t-92.5 -6l-242 434l-135 225h-12v-659q-27 0 -78 6t-78 6q-24 0 -75.5 -6
t-75.5 -6zM463 1286v-549l49 -4q270 0 270 295q0 23 -1 46.5t-7 55.5q-16 95 -96 132q-55 24 -158 24h-57z" />
    <glyph glyph-name="S" unicode="S" 
d="M827 1130h-28q-33 87 -91.5 134t-146.5 47q-112 0 -168.5 -55.5t-56.5 -145.5q0 -111 160 -199q286 -157 301 -170q161 -127 161 -327q0 -197 -151.5 -324t-388.5 -127q-92 0 -177 21.5t-155 68.5q18 66 35.5 134.5t25.5 123.5h37q25 -104 101.5 -164.5t181.5 -60.5
q102 0 168 53q74 60 74 160q0 131 -158 217q-148 78 -293 156q-160 121 -160 332q0 184 119 303q127 127 352 127q105 0 194 -31t130 -68q-19 -49 -37 -109.5t-29 -95.5z" />
    <glyph glyph-name="T" unicode="T" horiz-adv-x="1159" 
d="M729 1249v-1261q-24 0 -75.5 6t-75.5 6q-27 0 -78 -6t-78 -6v1261q-103 0 -199 -7t-182 -21q4 26 8 54t4 36q0 18 -4 40.5t-8 45.5h1057q-6 -43 -13 -86q0 -21 4.5 -45.5t8.5 -44.5q-105 14 -193 21t-176 7z" />
    <glyph glyph-name="U" unicode="U" horiz-adv-x="1397" 
d="M160 561v836q67 -6 135 -13q67 7 135 13v-582q0 -98 1 -199.5t11 -189.5q21 -100 31 -127q21 -57 68 -106q84 -91 204 -91q127 0 201 57.5t123 192.5q16 45 24.5 145.5t8.5 276.5v623q24 -4 35.5 -6t33.5 -2q19 0 40.5 3t33.5 5v-729q0 -230 -24 -330q-39 -164 -168 -264
q-70 -60 -157 -85.5t-187 -25.5q-189 0 -318 72q-158 88 -203 272q-14 62 -21 122t-7 132z" />
    <glyph glyph-name="V" unicode="V" horiz-adv-x="1376" 
d="M762 -12l-86 12q-21 0 -45.5 -4t-44.5 -8q-68 188 -174.5 467.5t-184.5 474.5q-61 155 -190 467q45 0 84 -4t96 -9q31 0 92.5 6.5t87.5 6.5q64 -209 174 -508q95 -254 191 -508q104 252 202.5 512t178.5 504l94 -8q25 0 52.5 3t41.5 5q-98 -234 -196 -465
q-119 -283 -193 -467q-96 -240 -180 -477z" />
    <glyph glyph-name="W" unicode="W" horiz-adv-x="2052" 
d="M49 1335l-16 62q28 0 83.5 -6.5t84.5 -6.5q43 0 90 4.5t78 8.5q65 -277 131.5 -523.5t138.5 -500.5q43 121 121 338q47 127 122.5 346t112.5 340q25 -4 47.5 -6t55.5 -2q24 0 54 3t48 5q45 -172 115 -385q198 -604 209 -639q88 268 159 506q86 286 144 518q24 -4 46.5 -6
t51.5 -2l94 8q-141 -381 -252 -705q-125 -364 -227 -704q-27 4 -61.5 8t-40.5 4q-21 0 -49.5 -4t-53.5 -8q-43 157 -100 340q-66 207 -109 334q-14 38 -118 329q-37 -104 -117 -325q-70 -195 -119 -330q-72 -203 -121 -348q-26 4 -61 8t-41 4q-21 0 -49.5 -4t-53.5 -8
q-47 186 -124 452q-66 226 -134.5 449t-138.5 446z" />
    <glyph glyph-name="X" unicode="X" horiz-adv-x="1270" 
d="M1204 1397l-200 -279l-238 -340l29 -45q100 -182 201.5 -364.5t199.5 -380.5q-31 0 -90 6t-90 6q-41 0 -64 -2q-108 -10 -112 -10q-52 106 -133 264q-93 174 -138 260l-188 -295q-35 -55 -71 -118.5t-56 -106.5q-25 4 -47.5 6t-54.5 2q-25 0 -54.5 -3t-48.5 -5
q258 364 443 651l-418 754q30 0 89.5 -6.5t90.5 -6.5t92.5 6.5t91.5 6.5q54 -115 156 -310q49 -94 98 -186l307 496q41 -6 56.5 -7t46.5 -1q24 0 54 3t48 5z" />
    <glyph glyph-name="Y" unicode="Y" horiz-adv-x="1376" 
d="M827 623v-635q-26 0 -77.5 6t-77.5 6q-25 0 -76 -6t-76 -6v594q-45 71 -162 268q-96 162 -161 272q-80 138 -160 275q49 0 91 -4t101 -9q33 0 98.5 6.5t98.5 6.5q84 -158 184 -365q52 -102 80 -155q37 -70 55 -91q62 72 205 363q70 141 119 248q27 -4 50.5 -6t56.5 -2
q26 0 57 3t49 5q-74 -123 -156 -258q-106 -176 -155 -258q-86 -148 -144 -258z" />
    <glyph glyph-name="Z" unicode="Z" horiz-adv-x="1270" 
d="M1200 0h-1151v37q383 594 725 1184v28q-123 0 -428 -16q-151 -8 -211 -8q2 20 5 40.5t3 45.5q0 35 -2 53q-6 22 -6 33h1069v-37q-110 -168 -246 -391q-151 -250 -237 -400q-115 -200 -229 -401v-21q143 0 280 7q410 18 428 18q-4 -22 -6 -41.5t-2 -44.5q0 -35 2 -53
q6 -23 6 -33z" />
    <glyph glyph-name="bracketleft" unicode="[" horiz-adv-x="700" 
d="M172 -266v1814h430v-114l-225 12v-1610l225 8v-110h-430z" />
    <glyph glyph-name="backslash" unicode="\" horiz-adv-x="1073" 
d="M254 1548l762 -1548q-29 2 -48.5 3t-33.5 1h-25h-46.5t-51.5 -4l-762 1548q27 -4 50.5 -6t52.5 -2q24 0 55 3t47 5z" />
    <glyph glyph-name="bracketright" unicode="]" horiz-adv-x="700" 
d="M512 1548v-1814h-430v110l225 -8v1610l-225 -12v114h430z" />
    <glyph glyph-name="asciicircum" unicode="^" horiz-adv-x="1245" 
d="M303 569h-197l422 828h185l422 -828h-193l-319 602z" />
    <glyph glyph-name="underscore" unicode="_" 
d="M1024 -328h-1024v78h1024v-78z" />
    <glyph glyph-name="grave" unicode="`" horiz-adv-x="700" 
d="M242 1421l266 -303h-115l-270 164q-35 25 -70 49q-37 33 -37 74q0 39 26 64.5t64 25.5q46 0 74.5 -17.5t61.5 -56.5z" />
    <glyph glyph-name="a" unicode="a" 
d="M606 328v200q-61 -22 -98 -34q-68 -25 -105.5 -54.5t-52 -69.5t-14.5 -100q0 -69 25.5 -116.5t89.5 -47.5q84 0 122 72q33 60 33 150zM889 729v-557q0 -102 86 -102l16 4v-45q-43 -21 -95 -39.5t-89 -18.5q-70 0 -123 41t-78 111q-39 -70 -110.5 -111t-151.5 -41
q-133 0 -214 70t-81 201q0 141 90 209q74 55 287 106q47 12 74 21q45 14 73 32q17 15 25 35.5t8 42.5q0 74 -61.5 127t-134.5 53q-88 0 -170 -49q-68 -41 -80 -78h-13l-28 123q69 64 175.5 102t205.5 38q153 0 258 -60q131 -74 131 -215z" />
    <glyph glyph-name="b" unicode="b" horiz-adv-x="1159" 
d="M111 0v1548q24 0 71 -6t72 -6q29 0 66.5 4t72.5 8v-708q41 78 113 121t162 43q190 0 303 -150q102 -137 102 -334q0 -114 -24 -205q-31 -112 -95 -184q-135 -160 -344 -160q-88 0 -161.5 36t-120.5 108q-45 -25 -111 -70q-57 -39 -65 -45h-41zM393 479q0 -219 44 -316
t136 -97q95 0 146 113.5t51 307.5q0 156 -25 238q-43 143 -159 143q-119 0 -164 -145q-29 -90 -29 -244z" />
    <glyph glyph-name="c" unicode="c" 
d="M983 909l-78 -213h-49q-10 92 -61 150q-58 63 -148 63q-129 0 -196 -143q-54 -113 -54 -258q0 -195 70 -293q78 -109 242 -109q57 0 116.5 26t96.5 69l32 -29l-49 -123q-39 -37 -122 -57.5t-152 -20.5q-246 0 -387 127q-150 133 -150 373q0 242 147.5 387.5t389.5 145.5
q94 0 189 -24t163 -71z" />
    <glyph glyph-name="d" unicode="d" horiz-adv-x="1159" 
d="M1020 1548v-1560q-68 6 -135 12q-29 0 -66 -4t-69 -8v184q-35 -92 -109 -146.5t-174 -54.5q-211 0 -313 158q-88 135 -88 358q0 213 94 355q108 162 299 162q98 0 166.5 -35t111.5 -113v692q25 0 72 -6t72 -6q28 0 66 4t73 8zM565 868q-114 0 -164 -145q-32 -96 -32 -244
q0 -141 26 -229q43 -144 154 -144q115 0 164 150q32 100 32 248q0 137 -28 225q-45 139 -152 139z" />
    <glyph glyph-name="e" unicode="e" 
d="M377 586h303q0 125 -21 200q-32 123 -114 123q-101 0 -142 -121q-26 -77 -26 -202zM963 487h-586l-4 -32q0 -160 65 -248q74 -101 221 -101q64 0 126.5 24t115.5 67l25 -17l-45 -114q-136 -95 -295 -95q-252 0 -382 142.5t-130 398.5q0 219 125 355.5t342 136.5
q215 0 323 -130q99 -116 99 -325v-62z" />
    <glyph glyph-name="f" unicode="f" horiz-adv-x="655" 
d="M172 852h-152v131h152q14 98 35 170q29 100 72 170q59 113 134.5 167t184.5 54l102 -8q0 -27 -6 -86t-6 -86l4 -86l-24 -12q-43 22 -92.5 39.5t-88.5 17.5q-45 0 -69.5 -4t-44.5 -21q-6 -6 -13 -12q-12 -14 -12 -33q0 -34 35 -131q4 -12 55 -139h209q-4 -18 -6 -33.5
t-2 -31.5q0 -17 8 -66h-192v-864q-25 0 -72 6t-72 6q-28 0 -66 -4t-73 -8v864z" />
    <glyph glyph-name="g" unicode="g" 
d="M254 -152q-6 -14 -9 -34.5t-3 -42.5q0 -111 80.5 -170.5t193.5 -59.5q111 0 182.5 70t71.5 160q0 127 -94 170q-60 26 -209 26q-117 0 -158 -29.5t-55 -89.5zM987 995l-4 -94l-184 8q110 -92 110 -229q0 -168 -125 -256q-112 -80 -309 -80h-29q-45 0 -61 -16
q-25 -25 -25 -54q0 -57 44.5 -81.5t123.5 -24.5l177 -8q159 0 233 -74q66 -66 66 -192q0 -211 -168 -330q-148 -105 -373 -105q-156 0 -264 56q-142 71 -142 215q0 80 45 140t123 89l29 21l-12 16q-103 39 -103 151q0 68 51.5 130.5t108.5 74.5l33 8q-262 62 -262 328
q0 166 120.5 241t337.5 75q35 0 119 -4.5t90 -4.5h250zM356 655q0 -118 39 -180q33 -53 92 -53q99 0 125 143q11 56 11 127q0 92 -21 148q-31 86 -106 86q-86 0 -119 -99q-21 -61 -21 -172z" />
    <glyph glyph-name="h" unicode="h" horiz-adv-x="1159" 
d="M397 1548v-704q58 63 135 108q91 52 168 52q144 0 238 -95q53 -49 69.5 -109.5t16.5 -152.5v-659q-27 2 -51 4q-72 8 -88 8q-25 0 -72 -6t-72 -6v512q0 166 -28 237q-39 94 -140 94q-108 0 -151 -112q-29 -76 -29 -211l4 -45v-475q-24 0 -71 6t-72 6q-29 0 -66.5 -4
t-72.5 -8v1560q24 -2 73.5 -7t65.5 -5q25 0 72 6t71 6z" />
    <glyph glyph-name="i" unicode="i" horiz-adv-x="590" 
d="M143 -12v995q25 0 81.5 -4t62.5 -4q35 0 75.5 3t63.5 5v-995q-27 2 -51 4q-72 8 -88 8q-25 0 -72 -6t-72 -6zM123 1360q0 65 47 112.5t113 47.5q65 0 114 -47.5t49 -112.5q0 -68 -48 -116t-115 -48q-66 0 -113 49t-47 115z" />
    <glyph glyph-name="j" unicode="j" horiz-adv-x="590" 
d="M430 983v-999q0 -101 -35 -170.5t-121 -137.5q-57 -47 -125.5 -72.5t-140.5 -25.5l-24 70q102 30 137 110q26 62 26 197v1028q60 -6 79.5 -7t60.5 -1q24 0 81.5 4t61.5 4zM283 1196q-66 0 -111 47t-45 113q0 67 44 115.5t112 48.5q73 0 120.5 -45t47.5 -119
q0 -70 -49.5 -115t-118.5 -45z" />
    <glyph glyph-name="k" unicode="k" 
d="M123 -12v1560q24 -2 73.5 -7t65.5 -5q25 0 72 6t72 6v-1003l4 -4l12 4q88 88 196 211q130 149 197 227q21 -4 41.5 -6t48.5 -2q21 0 46.5 3t39.5 5v-12q-51 -66 -127 -142q-211 -213 -217 -219l164 -262q107 -168 201 -340v-20q-25 0 -76 6t-80 6q-25 0 -76 -6t-80 -6
q-51 100 -114.5 210.5t-122.5 202.5q-17 23 -25 35q-16 23 -32 31v-479q-25 0 -72 6t-72 6q-29 0 -66.5 -4t-72.5 -8z" />
    <glyph glyph-name="l" unicode="l" horiz-adv-x="590" 
d="M426 1548v-1560q-27 2 -51 4q-72 8 -88 8q-25 0 -72 -6t-72 -6v1560q25 0 72 -6t72 -6q28 0 66 4t73 8z" />
    <glyph glyph-name="m" unicode="m" horiz-adv-x="1724" 
d="M111 -12v995q59 -6 78.5 -7t60.5 -1q24 0 81.5 4t61.5 4v-152q45 76 127 124.5t172 48.5q101 0 170.5 -47.5t104.5 -141.5q53 86 134 137.5t177 51.5q170 0 248 -97q71 -90 71 -264v-655q-24 0 -71 6t-72 6q-29 0 -66.5 -4t-72.5 -8v557q0 172 -38 229t-114 57
q-98 0 -137 -61q-31 -49 -31 -160v-622q-24 0 -71 6t-72 6q-29 0 -66.5 -4t-72.5 -8v557q0 172 -38 229t-114 57q-94 0 -135 -77q-33 -62 -33 -164v-602q-24 0 -71.5 6t-71.5 6q-29 0 -67 -4t-72 -8z" />
    <glyph glyph-name="n" unicode="n" horiz-adv-x="1159" 
d="M115 -12v995q32 -4 63 -6t72 -2q33 0 72.5 3t62.5 5v-152q68 80 139 123q84 50 176 50q181 0 258 -115q66 -98 66 -299v-602q-27 2 -51 4q-72 8 -88 8q-25 0 -72 -6t-72 -6v512q0 166 -28 237q-39 94 -140 94q-114 0 -153 -135q-23 -78 -23 -233v-475q-24 0 -71 6t-72 6
q-29 0 -66.5 -4t-72.5 -8z" />
    <glyph glyph-name="o" unicode="o" 
d="M520 -29q-211 0 -335 134.5t-124 361.5q0 244 123 390.5t340 146.5q213 0 338 -131.5t125 -360.5q0 -240 -124 -390.5t-343 -150.5zM532 909q-106 0 -153 -127q-39 -104 -39 -311q0 -154 29 -252q45 -153 151 -153q101 0 150 153q39 125 39 326q0 164 -39 256
q-45 108 -138 108z" />
    <glyph glyph-name="p" unicode="p" horiz-adv-x="1159" 
d="M578 106q96 9 144 108t48 269q0 185 -39 279q-45 106 -141 106q-115 0 -164 -149q-33 -101 -33 -248q0 -145 27 -227q45 -138 158 -138zM115 -532v1515q32 -4 63 -6t76 -2q33 0 73 3t62 5v-180q35 94 107.5 147.5t171.5 53.5q206 0 313 -152q92 -131 92 -348
q0 -260 -125 -404q-112 -129 -284 -129q-97 0 -166 43q-58 35 -101 105v-651q-26 2 -51 4q-72 8 -88 8q-25 0 -72 -6t-71 -6z" />
    <glyph glyph-name="q" unicode="q" horiz-adv-x="1159" 
d="M758 803v180q33 -4 63.5 -6t75.5 -2q33 0 73 3t62 5v-1515q-24 0 -71.5 6t-71.5 6q-29 0 -67 -4t-72 -8v651q-39 -64 -99 -101q-76 -47 -168 -47q-188 0 -298.5 137.5t-110.5 366.5q0 246 92 381q100 148 297 148q215 0 295 -201zM377 500q0 -37 1 -58.5t7 -85.5
q0 -86 47 -161q55 -89 137 -89q111 0 156 134q29 84 29 227q0 154 -31 250q-47 151 -166 151q-111 0 -154 -139q-26 -84 -26 -229z" />
    <glyph glyph-name="r" unicode="r" horiz-adv-x="811" 
d="M139 -12v995q60 -6 79.5 -7t60.5 -1q24 0 81.5 4t61.5 4v-254q35 129 104 195q84 80 228 80q0 -33 -6.5 -103t-6.5 -102l4 -74l-20 -16q-18 12 -47 18t-55 6q-152 0 -189 -135q-16 -57 -16 -131l4 -107v-372q-25 0 -72 6t-71 6q-29 0 -67 -4t-73 -8z" />
    <glyph glyph-name="s" unicode="s" horiz-adv-x="811" 
d="M94 250h53q29 -80 89.5 -126t144.5 -46q55 0 105.5 36t50.5 87q0 75 -121 129q-207 92 -228 106q-122 86 -122 240q0 151 101 239.5t251 88.5q78 0 156.5 -26t138.5 -73l-49 -180h-58q-12 68 -69.5 120t-122.5 52q-62 0 -107 -29.5t-45 -89.5q0 -73 239.5 -169.5
t239.5 -309.5q0 -143 -106.5 -235.5t-286.5 -92.5q-168 0 -282 86z" />
    <glyph glyph-name="t" unicode="t" horiz-adv-x="700" 
d="M455 852v-582q0 -102 17 -145t85 -43q18 0 33.5 3t56.5 13v-78q-117 -49 -213 -49q-149 0 -211 95q-51 77 -51 237v549h-139q4 25 4 66v24v21q-4 14 -4 20h139v234q131 51 283 126v-360h176q-8 -41 -8 -65q0 -17 8 -66h-176z" />
    <glyph glyph-name="u" unicode="u" horiz-adv-x="1049" 
d="M934 983v-995q-66 6 -131 12q-27 0 -62.5 -4t-68.5 -8v151q-68 -73 -99 -98q-86 -70 -200 -70q-80 0 -149.5 32t-112.5 95q-31 47 -44.5 112.5t-13.5 137.5l4 70v565l136 -8q24 0 78.5 4t60.5 4v-565q0 -92 3 -115.5t17 -52.5q21 -53 53.5 -80t86.5 -27q112 0 149 105
q23 63 23 203v532q32 -4 63 -6t72 -2q32 0 72 3t63 5z" />
    <glyph glyph-name="v" unicode="v" 
d="M348 983l230 -709q81 211 131 351q65 184 118 358q23 -4 42.5 -4h39.5h31h25q18 4 26 4q0 -16 -15 -49t-65 -146q-32 -77 -39 -92q-159 -387 -176 -432q-45 -117 -94 -276q-27 4 -61.5 8t-40.5 4q-23 0 -51.5 -4t-55.5 -8q-28 84 -115.5 335.5t-115.5 327.5
q-47 129 -129 332q26 0 90.5 -4t69.5 -4q26 0 77.5 4t77.5 4z" />
    <glyph glyph-name="w" unicode="w" horiz-adv-x="1618" 
d="M336 983l205 -700q116 344 209 700q49 -4 71.5 -6t42.5 -2q31 0 64 3t51 5l209 -700q57 168 108.5 340t100.5 360q22 -4 41.5 -4h40.5h30h25q18 4 27 4q-84 -211 -179 -479q-102 -291 -165 -516q-56 6 -111 12q-25 0 -54.5 -4t-56.5 -8l-204 680q-52 -154 -109 -334
q-68 -211 -104 -346q-56 6 -111 12q-25 0 -54.5 -4t-56.5 -8q-75 262 -152 501.5t-167 493.5q24 0 73.5 -4t73.5 -4q27 0 88.5 4t63.5 4z" />
    <glyph glyph-name="x" unicode="x" 
d="M639 -12l-197 360q-75 -115 -112 -172q-56 -86 -113 -184l-82 8q-20 0 -43.5 -3t-38.5 -5l324 454q-76 136 -152 265q-108 180 -164 272q27 0 82.5 -4t81.5 -4q29 0 86.5 4t81.5 4l176 -319q58 79 109 155q61 92 104 164q25 -4 47.5 -4h47.5h32h29q20 4 29 4
q-183 -219 -332 -422l110 -192q115 -191 230 -381q-29 0 -84 6t-84 6t-84 -6t-84 -6z" />
    <glyph glyph-name="y" unicode="y" 
d="M193 -532l262 528l-414 987q25 0 86 -4t70 -4q24 0 85.5 4t69.5 4q54 -152 88.5 -245t157.5 -390l78 209q41 107 59 158q47 125 96 268q23 -4 42.5 -4h39.5h33h27q18 4 26 4l-208 -467q-129 -295 -223.5 -524.5t-202.5 -523.5q-23 4 -41.5 6t-44.5 2q-21 0 -46.5 -3
t-39.5 -5z" />
    <glyph glyph-name="z" unicode="z" 
d="M963 983v-78l-181 -254q-145 -209 -182 -262q-106 -156 -178 -270q117 0 233 6q275 14 291 14q-4 -24 -6 -35.5t-2 -33.5l8 -70h-885v86q271 373 537 778q-143 0 -235.5 -3t-235.5 -17q6 35 12 69q0 17 -5 38.5t-7 31.5h836z" />
    <glyph glyph-name="braceleft" unicode="{" horiz-adv-x="700" 
d="M238 877v385q0 77 17 134.5t73 90.5q53 37 117.5 49t148.5 12h37q-111 -30 -150 -85.5t-39 -172.5v-381q0 -116 -39 -176q-45 -69 -165 -98q122 -27 168 -98q36 -60 36 -189v-360q0 -109 42 -169.5t147 -84.5h-53q-189 0 -261 61q-79 70 -79 258v340q0 113 -33 160
q-39 55 -152 82q88 20 140 78q28 35 36.5 70.5t8.5 93.5z" />
    <glyph glyph-name="bar" unicode="|" horiz-adv-x="1245" 
d="M532 0v1548h177v-1548h-177z" />
    <glyph glyph-name="braceright" unicode="}" horiz-adv-x="700" 
d="M446 1225v-340q0 -111 36 -162t149 -76q-88 -20 -139 -78q-31 -39 -38.5 -71.5t-7.5 -91.5v-386q0 -79 -14 -126q-20 -66 -76.5 -103t-115 -47t-150.5 -10h-37q111 26 150 82.5t39 171.5v385q0 116 42 180.5t162 93.5q-122 27 -167 98q-37 60 -37 189v356q0 111 -39 168
q-45 66 -150 90h29q203 0 278 -61q86 -70 86 -262z" />
    <glyph glyph-name="asciitilde" unicode="~" horiz-adv-x="1245" 
d="M1040 717l99 -115q-82 -137 -154 -186q-63 -43 -141 -43q-70 0 -180 47q-48 20 -95 43q-57 22 -82 31q-51 18 -86 18q-67 0 -120 -59q-29 -33 -76 -121l-99 114q76 142 148 194t147 52q80 0 240 -71.5t207 -71.5q61 0 115 55q34 37 77 113z" />
    <glyph glyph-name="sterling" unicode="&#xa3;" horiz-adv-x="1159" 
d="M1049 0h-992q2 31 7.5 72t5.5 47q0 26 -4.5 58t-8.5 61l9 -5q116 0 170.5 64.5t54.5 185.5q0 25 -4 74t-4 74h-172q4 16 4 33.5v27.5v23q0 14 -4 39h159q0 30 -4 91.5t-4 92.5q0 100 34 194.5t103.5 155t146.5 85t183 24.5q96 0 176 -23.5t148 -79.5q-45 -77 -60 -102
q-20 -37 -55 -107l-25 5q-6 40 -14 85.5t-31 69.5q-20 29 -55 47.5t-72 18.5q-123 0 -155 -123q-21 -68 -21 -156l4 -45l9 -233h364l-4 -62l4 -61h-369q-12 -109 -73.5 -207t-151.5 -170q166 0 297 4q393 12 404 12q-5 -34 -7 -64t-2 -71q0 -33 2 -67.5t7 -67.5z" />
    <glyph glyph-name="yen" unicode="&#xa5;" horiz-adv-x="1159" 
d="M434 -12v344h-381v164h381v77l-61 107h-320v164h234q-97 188 -133 260q-95 186 -154 293q31 0 90.5 -6.5t89.5 -6.5q29 0 88.5 6.5t87.5 6.5l168 -365q66 -139 90.5 -185t36.5 -61q58 72 187 363q73 166 108 248q25 -4 47.5 -6t50.5 -2q25 0 52.5 3t42.5 5
q-74 -137 -316 -553h271v-164h-344l-33 -70v-114h377v-164h-377v-344q-25 0 -72 6t-72 6q-28 0 -66 -4t-73 -8z" />
    <glyph glyph-name="dieresis" unicode="&#xa8;" horiz-adv-x="1024" 
 />
    <glyph glyph-name="copyright" unicode="&#xa9;" horiz-adv-x="1552" 
d="M766 -37q-295 0 -502 214t-207 519q0 303 207 520.5t502 217.5q299 0 508 -215t209 -523q0 -303 -209 -518t-508 -215zM766 1319q-248 0 -417 -181.5t-169 -441.5q0 -256 171 -437t415 -181q250 0 422 180t172 438q0 260 -171 441.5t-423 181.5zM1028 442l16 -4l-24 -98
q-51 -27 -107.5 -40t-117.5 -13q-189 0 -307.5 106.5t-118.5 282.5q0 215 131 330q118 104 319 104q55 0 117.5 -14.5t116.5 -42.5q-9 -23 -18 -68t-11 -51h-16q-68 106 -189 106q-131 0 -201 -110q-61 -96 -61 -238q0 -153 69.5 -244.5t200.5 -91.5q52 0 108 25t93 61z" />
    <glyph glyph-name="registered" unicode="&#xae;" horiz-adv-x="1552" 
d="M770 -37q-297 0 -505 214t-208 523q0 306 207 520t506 214q295 0 502 -214t207 -520q0 -307 -207 -522t-502 -215zM770 1319q-250 0 -420 -180.5t-170 -438.5q0 -260 171 -441t419 -181t417 181t169 441q0 256 -169 437.5t-417 181.5zM512 287v823h303q107 0 166 -51
t59 -146q0 -84 -49 -141t-135 -76q45 -80 100 -168q70 -108 105 -163l45 -78q-19 2 -42.5 5t-51.5 3q-23 0 -37 -1t-53 -7l-213 385h-37v-385q-21 2 -39.5 5t-42.5 3q-19 0 -32 -1t-46 -7zM672 1032v-319l33 -4q159 0 159 176q0 94 -41 127q-26 20 -90 20h-61z" />
    <glyph glyph-name="degree" unicode="&#xb0;" horiz-adv-x="82" 
d="M-496 1178q66 0 110 48t44 113q0 66 -44 112t-110 46q-63 0 -108 -47t-45 -111q0 -65 44 -113t109 -48zM-496 1126q-90 0 -149.5 61.5t-59.5 151.5q0 91 59.5 150t149.5 59q88 0 149.5 -59t61.5 -150q0 -90 -61.5 -151.5t-149.5 -61.5z" />
    <glyph glyph-name="plusminus" unicode="&#xb1;" horiz-adv-x="1245" 
d="M532 750v286h177v-286h430v-177h-430v-299h-177v299h-426v177h426zM1139 0h-1033v176h1033v-176z" />
    <glyph glyph-name="paragraph" unicode="&#xb6;" horiz-adv-x="1442" 
d="M1030 1278v-1192l-76 2l-73 -2v1192h-97v-1192l-71 2l-76 -2v688l-55 -4q-152 0 -238 76t-86 219q0 133 76 205q88 84 287 84h489v-76h-80zM506 1114v-110q0 -82 20 -121q31 -60 111 -60v455h-10q-72 0 -96.5 -41t-24.5 -123z" />
    <glyph glyph-name="onequarter" unicode="&#xbc;" horiz-adv-x="1780" 
 />
    <glyph glyph-name="onehalf" unicode="&#xbd;" horiz-adv-x="1780" 
 />
    <glyph glyph-name="threequarters" unicode="&#xbe;" horiz-adv-x="1780" 
 />
    <glyph glyph-name=".notdef.106" unicode="&#xc0;" horiz-adv-x="1376" 
d="M844 418h-479q-41 -117 -58 -166q-59 -170 -86 -260q-18 2 -41.5 5t-52.5 3q-25 0 -53.5 -3t-44.5 -5l585 1421q19 -4 38.5 -4h39.5h29h22q19 4 27 4l569 -1425q-41 0 -63 2q-109 10 -113 10q-41 0 -63 -2q-109 -10 -113 -10q-72 250 -143 430zM422 545h373l-181 475z
M622 1835l262 -307h-115l-266 168q-56 33 -72 47q-35 33 -35 76q0 36 24.5 63t65.5 27q45 0 76 -19q21 -12 60 -55z" />
    <glyph glyph-name=".notdef.107" unicode="&#xc1;" horiz-adv-x="1376" 
d="M844 418h-479q-41 -117 -58 -166q-59 -170 -86 -260q-18 2 -41.5 5t-52.5 3q-25 0 -53.5 -3t-44.5 -5l585 1421q19 -4 38.5 -4h39.5h29h22q19 4 27 4l569 -1425q-41 0 -63 2q-109 10 -113 10q-41 0 -63 -2q-109 -10 -113 -10q-72 250 -143 430zM422 545h373l-181 475z
M497 1528l266 307q62 74 135 74q37 0 64 -27t27 -63q0 -35 -17.5 -56.5t-89.5 -66.5l-270 -168h-115z" />
    <glyph glyph-name=".notdef.111" unicode="&#xc2;" horiz-adv-x="1376" 
d="M844 418h-479q-41 -117 -58 -166q-59 -170 -86 -260q-18 2 -41.5 5t-52.5 3q-25 0 -53.5 -3t-44.5 -5l585 1421q19 -4 38.5 -4h39.5h29h22q19 4 27 4l569 -1425q-41 0 -63 2q-109 10 -113 10q-41 0 -63 -2q-109 -10 -113 -10q-72 250 -143 430zM422 545h373l-181 475z
M586 1868h192l250 -361h-115l-229 205l-234 -205h-110z" />
    <glyph glyph-name=".notdef.109" unicode="&#xc3;" horiz-adv-x="1376" 
d="M844 418h-479q-41 -117 -58 -166q-59 -170 -86 -260q-18 2 -41.5 5t-52.5 3q-25 0 -53.5 -3t-44.5 -5l585 1421q19 -4 38.5 -4h39.5h29h22q19 4 27 4l569 -1425q-41 0 -63 2q-109 10 -113 10q-41 0 -63 -2q-109 -10 -113 -10q-72 250 -143 430zM422 545h373l-181 475z
M948 1827h73q-22 -115 -65 -176q-57 -82 -152 -82q-39 0 -71 12q-9 4 -62 30.5t-78 37.5q-49 22 -75 22q-41 0 -61.5 -34.5t-20.5 -63.5h-74q0 106 74 188q59 66 143 66q47 0 107 -27q43 -22 61 -31q31 -18 57.5 -29t48.5 -11q35 0 60 30q14 19 35 68z" />
    <glyph glyph-name=".notdef.123" unicode="&#xc8;" horiz-adv-x="1270" 
d="M160 1397h942q-4 -23 -8 -53.5t-4 -36.5l12 -86q-105 10 -261.5 19t-299.5 9h-74v-442h328q96 0 145 3t154 17q-9 -45 -17 -90q0 -16 5 -40.5t12 -45.5q-54 4 -148 10.5t-151 6.5h-328v-521q178 0 349 8.5t286 20.5l-12 -86q0 -18 4 -42.5t8 -47.5h-942v1397zM586 1835
l262 -307h-115l-266 168q-56 33 -72 47q-35 33 -35 76q0 36 24.5 63t65.5 27q45 0 76 -19q21 -12 60 -55z" />
    <glyph glyph-name=".notdef.124" unicode="&#xc9;" horiz-adv-x="1270" 
d="M160 1397h942q-4 -23 -8 -53.5t-4 -36.5l12 -86q-105 10 -261.5 19t-299.5 9h-74v-442h328q96 0 145 3t154 17q-9 -45 -17 -90q0 -16 5 -40.5t12 -45.5q-54 4 -148 10.5t-151 6.5h-328v-521q178 0 349 8.5t286 20.5l-12 -86q0 -18 4 -42.5t8 -47.5h-942v1397zM405 1528
l266 307q62 74 135 74q37 0 64 -27t27 -63q0 -35 -17.5 -56.5t-89.5 -66.5l-270 -168h-115z" />
    <glyph glyph-name=".notdef.128" unicode="&#xca;" horiz-adv-x="1270" 
d="M160 1397h942q-4 -23 -8 -53.5t-4 -36.5l12 -86q-105 10 -261.5 19t-299.5 9h-74v-442h328q96 0 145 3t154 17q-9 -45 -17 -90q0 -16 5 -40.5t12 -45.5q-54 4 -148 10.5t-151 6.5h-328v-521q178 0 349 8.5t286 20.5l-12 -86q0 -18 4 -42.5t8 -47.5h-942v1397zM533 1868
h192l250 -361h-115l-229 205l-234 -205h-110z" />
    <glyph glyph-name=".notdef.104" unicode="&#xcc;" horiz-adv-x="700" 
d="M188 -12v1409q25 0 76 -6.5t76 -6.5q27 0 78 6.5t78 6.5v-1409q-27 0 -78 6t-78 6q-25 0 -76 -6t-76 -6zM232 1835l262 -307h-115l-266 168q-56 33 -72 47q-35 33 -35 76q0 36 24.5 63t65.5 27q45 0 76 -19q21 -12 60 -55z" />
    <glyph glyph-name=".notdef.103" unicode="&#xcd;" horiz-adv-x="700" 
d="M188 -12v1409q25 0 76 -6.5t76 -6.5q27 0 78 6.5t78 6.5v-1409q-27 0 -78 6t-78 6q-25 0 -76 -6t-76 -6zM192 1528l266 307q62 74 135 74q37 0 64 -27t27 -63q0 -35 -17.5 -56.5t-89.5 -66.5l-270 -168h-115z" />
    <glyph glyph-name=".notdef.099" unicode="&#xd2;" horiz-adv-x="1397" 
d="M1348 705q0 -310 -179 -521q-188 -221 -485 -221q-287 0 -457 193.5t-170 539.5q0 316 174 521q185 217 494 217q326 0 492 -246q131 -195 131 -483zM713 1311q-178 0 -275.5 -168t-97.5 -508q0 -225 80 -375q92 -174 268 -174q186 0 289 199q92 178 92 456
q0 230 -82 385q-96 185 -274 185zM661 1835l262 -307h-115l-266 168q-56 33 -72 47q-35 33 -35 76q0 36 24.5 63t65.5 27q45 0 76 -19q21 -12 60 -55z" />
    <glyph glyph-name=".notdef.098" unicode="&#xd3;" horiz-adv-x="1397" 
d="M1348 705q0 -310 -179 -521q-188 -221 -485 -221q-287 0 -457 193.5t-170 539.5q0 316 174 521q185 217 494 217q326 0 492 -246q131 -195 131 -483zM713 1311q-178 0 -275.5 -168t-97.5 -508q0 -225 80 -375q92 -174 268 -174q186 0 289 199q92 178 92 456
q0 230 -82 385q-96 185 -274 185zM497 1528l266 307q62 74 135 74q37 0 64 -27t27 -63q0 -35 -17.5 -56.5t-89.5 -66.5l-270 -168h-115z" />
    <glyph glyph-name=".notdef.094" unicode="&#xd4;" horiz-adv-x="1397" 
d="M1348 705q0 -310 -179 -521q-188 -221 -485 -221q-287 0 -457 193.5t-170 539.5q0 316 174 521q185 217 494 217q326 0 492 -246q131 -195 131 -483zM713 1311q-178 0 -275.5 -168t-97.5 -508q0 -225 80 -375q92 -174 268 -174q186 0 289 199q92 178 92 456
q0 230 -82 385q-96 185 -274 185zM614 1868h192l250 -361h-115l-229 205l-234 -205h-110z" />
    <glyph glyph-name=".notdef.096" unicode="&#xd5;" horiz-adv-x="1397" 
d="M1348 705q0 -310 -179 -521q-188 -221 -485 -221q-287 0 -457 193.5t-170 539.5q0 316 174 521q185 217 494 217q326 0 492 -246q131 -195 131 -483zM713 1311q-178 0 -275.5 -168t-97.5 -508q0 -225 80 -375q92 -174 268 -174q186 0 289 199q92 178 92 456
q0 230 -82 385q-96 185 -274 185zM987 1827h73q-22 -115 -65 -176q-57 -82 -152 -82q-39 0 -71 12q-9 4 -62 30.5t-78 37.5q-49 22 -75 22q-41 0 -61.5 -34.5t-20.5 -63.5h-74q0 106 74 188q59 66 143 66q47 0 107 -27q43 -22 61 -31q31 -18 57.5 -29t48.5 -11q35 0 60 30
q14 19 35 68z" />
    <glyph glyph-name="multiply" unicode="&#xd7;" horiz-adv-x="1245" 
d="M496 520l-390 389l127 127l385 -389l394 389l127 -127l-394 -389l394 -393l-127 -127l-394 397l-385 -397l-127 127z" />
    <glyph glyph-name=".notdef.088" unicode="&#xd9;" horiz-adv-x="1397" 
d="M160 561v836q67 -6 135 -13q67 7 135 13v-582q0 -98 1 -199.5t11 -189.5q21 -100 31 -127q21 -57 68 -106q84 -91 204 -91q127 0 201 57.5t123 192.5q16 45 24.5 145.5t8.5 276.5v623q24 -4 35.5 -6t33.5 -2q19 0 40.5 3t33.5 5v-729q0 -230 -24 -330q-39 -164 -168 -264
q-70 -60 -157 -85.5t-187 -25.5q-189 0 -318 72q-158 88 -203 272q-14 62 -21 122t-7 132zM622 1835l262 -307h-115l-266 168q-56 33 -72 47q-35 33 -35 76q0 36 24.5 63t65.5 27q45 0 76 -19q21 -12 60 -55z" />
    <glyph glyph-name=".notdef.087" unicode="&#xda;" horiz-adv-x="1397" 
d="M160 561v836q67 -6 135 -13q67 7 135 13v-582q0 -98 1 -199.5t11 -189.5q21 -100 31 -127q21 -57 68 -106q84 -91 204 -91q127 0 201 57.5t123 192.5q16 45 24.5 145.5t8.5 276.5v623q24 -4 35.5 -6t33.5 -2q19 0 40.5 3t33.5 5v-729q0 -230 -24 -330q-39 -164 -168 -264
q-70 -60 -157 -85.5t-187 -25.5q-189 0 -318 72q-158 88 -203 272q-14 62 -21 122t-7 132zM497 1528l266 307q62 74 135 74q37 0 64 -27t27 -63q0 -35 -17.5 -56.5t-89.5 -66.5l-270 -168h-115z" />
    <glyph glyph-name=".notdef.070" unicode="&#xdd;" horiz-adv-x="1376" 
d="M827 623v-635q-26 0 -77.5 6t-77.5 6q-25 0 -76 -6t-76 -6v594q-45 71 -162 268q-96 162 -161 272q-80 138 -160 275q49 0 91 -4t101 -9q33 0 98.5 6.5t98.5 6.5q84 -158 184 -365q52 -102 80 -155q37 -70 55 -91q62 72 205 363q70 141 119 248q27 -4 50.5 -6t56.5 -2
q26 0 57 3t49 5q-74 -123 -156 -258q-106 -176 -155 -258q-86 -148 -144 -258zM497 1528l266 307q62 74 135 74q37 0 64 -27t27 -63q0 -35 -17.5 -56.5t-89.5 -66.5l-270 -168h-115z" />
    <glyph glyph-name=".notdef.066" unicode="&#xe0;" 
d="M606 328v200q-61 -22 -98 -34q-68 -25 -105.5 -54.5t-52 -69.5t-14.5 -100q0 -69 25.5 -116.5t89.5 -47.5q84 0 122 72q33 60 33 150zM889 729v-557q0 -102 86 -102l16 4v-45q-43 -21 -95 -39.5t-89 -18.5q-70 0 -123 41t-78 111q-39 -70 -110.5 -111t-151.5 -41
q-133 0 -214 70t-81 201q0 141 90 209q74 55 287 106q47 12 74 21q45 14 73 32q17 15 25 35.5t8 42.5q0 74 -61.5 127t-134.5 53q-88 0 -170 -49q-68 -41 -80 -78h-13l-28 123q69 64 175.5 102t205.5 38q153 0 258 -60q131 -74 131 -215zM436 1421l266 -303h-115l-270 164
q-35 25 -70 49q-37 33 -37 74q0 39 26 64.5t64 25.5q46 0 74.5 -17.5t61.5 -56.5z" />
    <glyph glyph-name=".notdef.065" unicode="&#xe1;" 
d="M606 328v200q-61 -22 -98 -34q-68 -25 -105.5 -54.5t-52 -69.5t-14.5 -100q0 -69 25.5 -116.5t89.5 -47.5q84 0 122 72q33 60 33 150zM889 729v-557q0 -102 86 -102l16 4v-45q-43 -21 -95 -39.5t-89 -18.5q-70 0 -123 41t-78 111q-39 -70 -110.5 -111t-151.5 -41
q-133 0 -214 70t-81 201q0 141 90 209q74 55 287 106q47 12 74 21q45 14 73 32q17 15 25 35.5t8 42.5q0 74 -61.5 127t-134.5 53q-88 0 -170 -49q-68 -41 -80 -78h-13l-28 123q69 64 175.5 102t205.5 38q153 0 258 -60q131 -74 131 -215zM319 1118l262 303q31 33 45 45
q35 29 91 29q41 0 65.5 -24.5t24.5 -65.5q0 -43 -35 -74q-6 -6 -72 -49l-266 -164h-115z" />
    <glyph glyph-name=".notdef.061" unicode="&#xe2;" 
d="M606 328v200q-61 -22 -98 -34q-68 -25 -105.5 -54.5t-52 -69.5t-14.5 -100q0 -69 25.5 -116.5t89.5 -47.5q84 0 122 72q33 60 33 150zM889 729v-557q0 -102 86 -102l16 4v-45q-43 -21 -95 -39.5t-89 -18.5q-70 0 -123 41t-78 111q-39 -70 -110.5 -111t-151.5 -41
q-133 0 -214 70t-81 201q0 141 90 209q74 55 287 106q47 12 74 21q45 14 73 32q17 15 25 35.5t8 42.5q0 74 -61.5 127t-134.5 53q-88 0 -170 -49q-68 -41 -80 -78h-13l-28 123q69 64 175.5 102t205.5 38q153 0 258 -60q131 -74 131 -215zM413 1458h188l254 -360h-119
l-229 200l-229 -200h-115z" />
    <glyph glyph-name=".notdef.063" unicode="&#xe3;" 
d="M606 328v200q-61 -22 -98 -34q-68 -25 -105.5 -54.5t-52 -69.5t-14.5 -100q0 -69 25.5 -116.5t89.5 -47.5q84 0 122 72q33 60 33 150zM889 729v-557q0 -102 86 -102l16 4v-45q-43 -21 -95 -39.5t-89 -18.5q-70 0 -123 41t-78 111q-39 -70 -110.5 -111t-151.5 -41
q-133 0 -214 70t-81 201q0 141 90 209q74 55 287 106q47 12 74 21q45 14 73 32q17 15 25 35.5t8 42.5q0 74 -61.5 127t-134.5 53q-88 0 -170 -49q-68 -41 -80 -78h-13l-28 123q69 64 175.5 102t205.5 38q153 0 258 -60q131 -74 131 -215zM778 1393h74q-22 -115 -65 -176
q-58 -82 -152 -82q-39 0 -72 12l-61 30.5t-78 36.5q-49 23 -76 23q-41 0 -61.5 -35t-20.5 -63h-73q0 106 73 188q60 66 144 66q47 0 106 -27q43 -23 62 -31q30 -18 57 -29.5t49 -11.5q35 0 60 31q14 18 34 68z" />
    <glyph glyph-name=".notdef.049" unicode="&#xe8;" 
d="M377 586h303q0 125 -21 200q-32 123 -114 123q-101 0 -142 -121q-26 -77 -26 -202zM963 487h-586l-4 -32q0 -160 65 -248q74 -101 221 -101q64 0 126.5 24t115.5 67l25 -17l-45 -114q-136 -95 -295 -95q-252 0 -382 142.5t-130 398.5q0 219 125 355.5t342 136.5
q215 0 323 -130q99 -116 99 -325v-62zM460 1421l266 -303h-115l-270 164q-35 25 -70 49q-37 33 -37 74q0 39 26 64.5t64 25.5q46 0 74.5 -17.5t61.5 -56.5z" />
    <glyph glyph-name=".notdef.048" unicode="&#xe9;" 
d="M377 586h303q0 125 -21 200q-32 123 -114 123q-101 0 -142 -121q-26 -77 -26 -202zM963 487h-586l-4 -32q0 -160 65 -248q74 -101 221 -101q64 0 126.5 24t115.5 67l25 -17l-45 -114q-136 -95 -295 -95q-252 0 -382 142.5t-130 398.5q0 219 125 355.5t342 136.5
q215 0 323 -130q99 -116 99 -325v-62zM350 1118l262 303q31 33 45 45q35 29 91 29q41 0 65.5 -24.5t24.5 -65.5q0 -43 -35 -74q-6 -6 -72 -49l-266 -164h-115z" />
    <glyph glyph-name=".notdef.044" unicode="&#xea;" 
d="M377 586h303q0 125 -21 200q-32 123 -114 123q-101 0 -142 -121q-26 -77 -26 -202zM963 487h-586l-4 -32q0 -160 65 -248q74 -101 221 -101q64 0 126.5 24t115.5 67l25 -17l-45 -114q-136 -95 -295 -95q-252 0 -382 142.5t-130 398.5q0 219 125 355.5t342 136.5
q215 0 323 -130q99 -116 99 -325v-62zM449 1458h188l254 -360h-119l-229 200l-229 -200h-115z" />
    <glyph glyph-name=".notdef.038" unicode="&#xec;" horiz-adv-x="590" 
d="M143 -12v995q25 0 81.5 -4t62.5 -4q35 0 75.5 3t63.5 5v-995q-27 2 -51 4q-72 8 -88 8q-25 0 -72 -6t-72 -6zM156 1421l266 -303h-115l-270 164q-35 25 -70 49q-37 33 -37 74q0 39 26 64.5t64 25.5q46 0 74.5 -17.5t61.5 -56.5z" />
    <glyph glyph-name=".notdef.037" unicode="&#xed;" horiz-adv-x="590" 
d="M143 -12v995q25 0 81.5 -4t62.5 -4q35 0 75.5 3t63.5 5v-995q-27 2 -51 4q-72 8 -88 8q-25 0 -72 -6t-72 -6zM147 1118l262 303q31 33 45 45q35 29 91 29q41 0 65.5 -24.5t24.5 -65.5q0 -43 -35 -74q-6 -6 -72 -49l-266 -164h-115z" />
    <glyph glyph-name=".notdef.033" unicode="&#xf2;" 
d="M520 -29q-211 0 -335 134.5t-124 361.5q0 244 123 390.5t340 146.5q213 0 338 -131.5t125 -360.5q0 -240 -124 -390.5t-343 -150.5zM532 909q-106 0 -153 -127q-39 -104 -39 -311q0 -154 29 -252q45 -153 151 -153q101 0 150 153q39 125 39 326q0 164 -39 256
q-45 108 -138 108zM436 1421l266 -303h-115l-270 164q-35 25 -70 49q-37 33 -37 74q0 39 26 64.5t64 25.5q46 0 74.5 -17.5t61.5 -56.5z" />
    <glyph glyph-name=".notdef.032" unicode="&#xf3;" 
d="M520 -29q-211 0 -335 134.5t-124 361.5q0 244 123 390.5t340 146.5q213 0 338 -131.5t125 -360.5q0 -240 -124 -390.5t-343 -150.5zM532 909q-106 0 -153 -127q-39 -104 -39 -311q0 -154 29 -252q45 -153 151 -153q101 0 150 153q39 125 39 326q0 164 -39 256
q-45 108 -138 108zM319 1118l262 303q31 33 45 45q35 29 91 29q41 0 65.5 -24.5t24.5 -65.5q0 -43 -35 -74q-6 -6 -72 -49l-266 -164h-115z" />
    <glyph glyph-name=".notdef.028" unicode="&#xf4;" 
d="M520 -29q-211 0 -335 134.5t-124 361.5q0 244 123 390.5t340 146.5q213 0 338 -131.5t125 -360.5q0 -240 -124 -390.5t-343 -150.5zM532 909q-106 0 -153 -127q-39 -104 -39 -311q0 -154 29 -252q45 -153 151 -153q101 0 150 153q39 125 39 326q0 164 -39 256
q-45 108 -138 108zM433 1458h188l254 -360h-119l-229 200l-229 -200h-115z" />
    <glyph glyph-name=".notdef.030" unicode="&#xf5;" 
d="M520 -29q-211 0 -335 134.5t-124 361.5q0 244 123 390.5t340 146.5q213 0 338 -131.5t125 -360.5q0 -240 -124 -390.5t-343 -150.5zM532 909q-106 0 -153 -127q-39 -104 -39 -311q0 -154 29 -252q45 -153 151 -153q101 0 150 153q39 125 39 326q0 164 -39 256
q-45 108 -138 108zM778 1393h74q-22 -115 -65 -176q-58 -82 -152 -82q-39 0 -72 12l-61 30.5t-78 36.5q-49 23 -76 23q-41 0 -61.5 -35t-20.5 -63h-73q0 106 73 188q60 66 144 66q47 0 106 -27q43 -23 62 -31q30 -18 57 -29.5t49 -11.5q35 0 60 31q14 18 34 68z" />
    <glyph glyph-name="divide" unicode="&#xf7;" horiz-adv-x="1706" 
 />
    <glyph glyph-name=".notdef.022" unicode="&#xf9;" horiz-adv-x="1049" 
d="M934 983v-995q-66 6 -131 12q-27 0 -62.5 -4t-68.5 -8v151q-68 -73 -99 -98q-86 -70 -200 -70q-80 0 -149.5 32t-112.5 95q-31 47 -44.5 112.5t-13.5 137.5l4 70v565l136 -8q24 0 78.5 4t60.5 4v-565q0 -92 3 -115.5t17 -52.5q21 -53 53.5 -80t86.5 -27q112 0 149 105
q23 63 23 203v532q32 -4 63 -6t72 -2q32 0 72 3t63 5zM436 1421l266 -303h-115l-270 164q-35 25 -70 49q-37 33 -37 74q0 39 26 64.5t64 25.5q46 0 74.5 -17.5t61.5 -56.5z" />
    <glyph glyph-name=".notdef.021" unicode="&#xfa;" horiz-adv-x="1049" 
d="M934 983v-995q-66 6 -131 12q-27 0 -62.5 -4t-68.5 -8v151q-68 -73 -99 -98q-86 -70 -200 -70q-80 0 -149.5 32t-112.5 95q-31 47 -44.5 112.5t-13.5 137.5l4 70v565l136 -8q24 0 78.5 4t60.5 4v-565q0 -92 3 -115.5t17 -52.5q21 -53 53.5 -80t86.5 -27q112 0 149 105
q23 63 23 203v532q32 -4 63 -6t72 -2q32 0 72 3t63 5zM319 1118l262 303q31 33 45 45q35 29 91 29q41 0 65.5 -24.5t24.5 -65.5q0 -43 -35 -74q-6 -6 -72 -49l-266 -164h-115z" />
    <glyph glyph-name=".notdef.004" unicode="&#xfd;" 
d="M193 -532l262 528l-414 987q25 0 86 -4t70 -4q24 0 85.5 4t69.5 4q54 -152 88.5 -245t157.5 -390l78 209q41 107 59 158q47 125 96 268q23 -4 42.5 -4h39.5h33h27q18 4 26 4l-208 -467q-129 -295 -223.5 -524.5t-202.5 -523.5q-23 4 -41.5 6t-44.5 2q-21 0 -46.5 -3
t-39.5 -5zM319 1118l262 303q31 33 45 45q35 29 91 29q41 0 65.5 -24.5t24.5 -65.5q0 -43 -35 -74q-6 -6 -72 -49l-266 -164h-115z" />
    <glyph glyph-name=".notdef.117" unicode="&#x102;" horiz-adv-x="1376" 
d="M844 418h-479q-41 -117 -58 -166q-59 -170 -86 -260q-18 2 -41.5 5t-52.5 3q-25 0 -53.5 -3t-44.5 -5l585 1421q19 -4 38.5 -4h39.5h29h22q19 4 27 4l569 -1425q-41 0 -63 2q-109 10 -113 10q-41 0 -63 -2q-109 -10 -113 -10q-72 250 -143 430zM422 545h373l-181 475z
M988 1761q-22 -116 -99 -185t-200 -69q-129 0 -209 67.5t-98 186.5h106q27 -53 77 -75.5t124 -22.5q70 0 117 23.5t71 74.5h111z" />
    <glyph glyph-name=".notdef.055" unicode="&#x103;" 
d="M606 328v200q-61 -22 -98 -34q-68 -25 -105.5 -54.5t-52 -69.5t-14.5 -100q0 -69 25.5 -116.5t89.5 -47.5q84 0 122 72q33 60 33 150zM889 729v-557q0 -102 86 -102l16 4v-45q-43 -21 -95 -39.5t-89 -18.5q-70 0 -123 41t-78 111q-39 -70 -110.5 -111t-151.5 -41
q-133 0 -214 70t-81 201q0 141 90 209q74 55 287 106q47 12 74 21q45 14 73 32q17 15 25 35.5t8 42.5q0 74 -61.5 127t-134.5 53q-88 0 -170 -49q-68 -41 -80 -78h-13l-28 123q69 64 175.5 102t205.5 38q153 0 258 -60q131 -74 131 -215zM818 1333q-23 -117 -99.5 -185.5
t-199.5 -68.5q-129 0 -209 67.5t-98 186.5h106q27 -53 77 -75.5t124 -22.5q70 0 117 23.5t71 74.5h111z" />
    <glyph glyph-name="Ccaron" unicode="&#x10c;" horiz-adv-x="1274" 
 />
    <glyph glyph-name="ccaron" unicode="&#x10d;" horiz-adv-x="922" 
 />
    <glyph glyph-name="Dslash" unicode="&#x110;" horiz-adv-x="1618" 
d="M164 647v139h82v611h631q307 0 473 -203q145 -178 145 -457q0 -340 -215 -542q-207 -195 -530 -195h-504v647h-82zM553 1278v-492h287v-139h-287v-528h102q234 0 357 131q143 153 143 491q0 279 -127 412q-119 125 -344 125h-131z" />
    <glyph glyph-name="dcroat" unicode="&#x111;" horiz-adv-x="1159" 
d="M1020 1221v-1233q-68 6 -135 12q-29 0 -66 -4t-69 -8v184q-35 -92 -109 -146.5t-174 -54.5q-211 0 -313 158q-88 135 -88 358q0 213 94 355q108 162 299 162q98 0 166.5 -35t111.5 -113v365h-209v139h209v188q25 0 72 -6t72 -6q28 0 66 4t73 8v-188h65v-139h-65zM565 868
q-114 0 -164 -145q-32 -96 -32 -244q0 -141 26 -229q43 -144 154 -144q115 0 164 150q32 100 32 248q0 137 -28 225q-45 139 -152 139z" />
    <glyph glyph-name=".notdef.101" unicode="&#x128;" horiz-adv-x="700" 
d="M188 -12v1409q25 0 76 -6.5t76 -6.5q27 0 78 6.5t78 6.5v-1409q-27 0 -78 6t-78 6q-25 0 -76 -6t-76 -6zM601 1827h73q-22 -115 -65 -176q-57 -82 -152 -82q-39 0 -71 12q-9 4 -62 30.5t-78 37.5q-49 22 -75 22q-41 0 -61.5 -34.5t-20.5 -63.5h-74q0 106 74 188
q59 66 143 66q47 0 107 -27q43 -22 61 -31q31 -18 57.5 -29t48.5 -11q35 0 60 30q14 19 35 68z" />
    <glyph glyph-name=".notdef.035" unicode="&#x129;" horiz-adv-x="590" 
d="M143 -12v995q25 0 81.5 -4t62.5 -4q35 0 75.5 3t63.5 5v-995q-27 2 -51 4q-72 8 -88 8q-25 0 -72 -6t-72 -6zM543 1393h74q-22 -115 -65 -176q-58 -82 -152 -82q-39 0 -72 12l-61 30.5t-78 36.5q-49 23 -76 23q-41 0 -61.5 -35t-20.5 -63h-73q0 106 73 188q60 66 144 66
q47 0 106 -27q43 -23 62 -31q30 -18 57 -29.5t49 -11.5q35 0 60 31q14 18 34 68z" />
    <glyph glyph-name=".notdef.085" unicode="&#x168;" horiz-adv-x="1397" 
d="M160 561v836q67 -6 135 -13q67 7 135 13v-582q0 -98 1 -199.5t11 -189.5q21 -100 31 -127q21 -57 68 -106q84 -91 204 -91q127 0 201 57.5t123 192.5q16 45 24.5 145.5t8.5 276.5v623q24 -4 35.5 -6t33.5 -2q19 0 40.5 3t33.5 5v-729q0 -230 -24 -330q-39 -164 -168 -264
q-70 -60 -157 -85.5t-187 -25.5q-189 0 -318 72q-158 88 -203 272q-14 62 -21 122t-7 132zM987 1827h73q-22 -115 -65 -176q-57 -82 -152 -82q-39 0 -71 12q-9 4 -62 30.5t-78 37.5q-49 22 -75 22q-41 0 -61.5 -34.5t-20.5 -63.5h-74q0 106 74 188q59 66 143 66
q47 0 107 -27q43 -22 61 -31q31 -18 57.5 -29t48.5 -11q35 0 60 30q14 19 35 68z" />
    <glyph glyph-name=".notdef.019" unicode="&#x169;" horiz-adv-x="1049" 
d="M934 983v-995q-66 6 -131 12q-27 0 -62.5 -4t-68.5 -8v151q-68 -73 -99 -98q-86 -70 -200 -70q-80 0 -149.5 32t-112.5 95q-31 47 -44.5 112.5t-13.5 137.5l4 70v565l136 -8q24 0 78.5 4t60.5 4v-565q0 -92 3 -115.5t17 -52.5q21 -53 53.5 -80t86.5 -27q112 0 149 105
q23 63 23 203v532q32 -4 63 -6t72 -2q32 0 72 3t63 5zM778 1393h74q-22 -115 -65 -176q-58 -82 -152 -82q-39 0 -72 12l-61 30.5t-78 36.5q-49 23 -76 23q-41 0 -61.5 -35t-20.5 -63h-73q0 106 73 188q60 66 144 66q47 0 106 -27q43 -23 62 -31q30 -18 57 -29.5t49 -11.5
q35 0 60 31q14 18 34 68z" />
    <glyph glyph-name=".notdef.077" unicode="&#x1a0;" horiz-adv-x="1397" 
d="M1151 1262q37 0 82 45q16 24 16 65q0 27 -5 51.5t-13 37t-39 14.5t-33 8v123q25 -4 36 -6.5t34 -2.5q24 0 70.5 4.5t56.5 4.5h61l-4 -33v-86q0 -57 -15.5 -116.5t-45 -95.5t-56.5 -52q-43 -27 -96 -27q74 -109 111 -234.5t37 -256.5q0 -310 -179 -521
q-188 -221 -485 -221q-287 0 -457 193.5t-170 539.5q0 316 174 521q185 217 494 217q139 0 244.5 -45.5t181.5 -126.5zM713 1311q-178 0 -275.5 -168t-97.5 -508q0 -225 80 -375q92 -174 268 -174q186 0 289 199q92 178 92 456q0 230 -82 385q-96 185 -274 185z" />
    <glyph glyph-name=".notdef.011" unicode="&#x1a1;" 
d="M831 889q27 0 50.5 9t40 32.5t16.5 48.5q0 37 -16 53q-7 10 -37.5 12.5t-32.5 8.5v123q41 -9 66 -9q18 0 44.5 4.5t49.5 4.5h57l-4 -29v-94q0 -64 -11.5 -94.5t-37.5 -61.5q-43 -49 -45 -51q-25 -23 -74 -23q90 -129 90 -311q0 -240 -124 -390.5t-343 -150.5
q-211 0 -335 134.5t-124 361.5q0 244 123 390.5t340 146.5q187 0 307 -115zM532 909q-106 0 -153 -127q-39 -104 -39 -311q0 -154 29 -252q45 -153 151 -153q101 0 150 153q39 125 39 326q0 164 -39 256q-45 108 -138 108z" />
    <glyph glyph-name=".notdef.083" unicode="&#x1af;" horiz-adv-x="1397" 
d="M1245 1368h25q24 0 45 21q16 24 16 65q0 19 -20 45q-6 10 -37 12t-33 9v122q25 -4 36 -6t34 -2q22 0 44.5 4t49.5 4h61l-4 -32v-86q0 -58 -9 -93.5t-44 -74.5q-12 -15 -31 -39q-4 -4 -30 -19q-9 -4 -51 -10t-52 -6v-614q0 -230 -24 -330q-39 -164 -168 -264
q-70 -60 -157 -85.5t-187 -25.5q-189 0 -318 72q-158 88 -203 272q-14 62 -21 122t-7 132v836q67 -6 135 -13q67 7 135 13v-582q0 -98 1 -199.5t11 -189.5q21 -100 31 -127q21 -57 68 -106q84 -91 204 -91q127 0 201 57.5t123 192.5q16 45 24.5 145.5t8.5 276.5v623
q24 -4 35.5 -6t33.5 -2q19 0 40.5 3t33.5 5v-29z" />
    <glyph glyph-name=".notdef.017" unicode="&#x1b0;" horiz-adv-x="1049" 
d="M934 950q33 6 42 8.5t24.5 24t15.5 57.5q0 41 -12 54q-7 10 -37.5 12t-32.5 8v123q41 -8 65 -8l91 4h57l-4 -29v-94q0 -45 -13.5 -85t-48.5 -83q-26 -33 -56 -45t-91 -12v-897q-66 6 -131 12q-27 0 -62.5 -4t-68.5 -8v151q-68 -73 -99 -98q-86 -70 -200 -70
q-80 0 -149.5 32t-112.5 95q-31 47 -44.5 112.5t-13.5 137.5l4 70v565l136 -8q24 0 78.5 4t60.5 4v-565q0 -92 3 -115.5t17 -52.5q21 -53 53.5 -80t86.5 -27q112 0 149 105q23 63 23 203v532q32 -4 63 -6t72 -2q32 0 72 3t63 5v-33z" />
    <glyph glyph-name=".notdef.110" unicode="&#x1ea0;" horiz-adv-x="1376" 
d="M844 418h-479q-41 -117 -58 -166q-59 -170 -86 -260q-18 2 -41.5 5t-52.5 3q-25 0 -53.5 -3t-44.5 -5l585 1421q19 -4 38.5 -4h39.5h29h22q19 4 27 4l569 -1425q-41 0 -63 2q-109 10 -113 10q-41 0 -63 -2q-109 -10 -113 -10q-72 250 -143 430zM422 545h373l-181 475z
M461 -279q0 66 47 113t113 47q65 0 114 -47t49 -113q0 -67 -48 -115t-115 -48q-66 0 -113 49t-47 114z" />
    <glyph glyph-name=".notdef.062" unicode="&#x1ea1;" 
d="M606 328v200q-61 -22 -98 -34q-68 -25 -105.5 -54.5t-52 -69.5t-14.5 -100q0 -69 25.5 -116.5t89.5 -47.5q84 0 122 72q33 60 33 150zM889 729v-557q0 -102 86 -102l16 4v-45q-43 -21 -95 -39.5t-89 -18.5q-70 0 -123 41t-78 111q-39 -70 -110.5 -111t-151.5 -41
q-133 0 -214 70t-81 201q0 141 90 209q74 55 287 106q47 12 74 21q45 14 73 32q17 15 25 35.5t8 42.5q0 74 -61.5 127t-134.5 53q-88 0 -170 -49q-68 -41 -80 -78h-13l-28 123q69 64 175.5 102t205.5 38q153 0 258 -60q131 -74 131 -215zM305 -279q0 66 47 113t113 47
q65 0 114 -47t49 -113q0 -67 -48 -115t-115 -48q-66 0 -113 49t-47 114z" />
    <glyph glyph-name=".notdef.108" unicode="&#x1ea2;" horiz-adv-x="1376" 
d="M844 418h-479q-41 -117 -58 -166q-59 -170 -86 -260q-18 2 -41.5 5t-52.5 3q-25 0 -53.5 -3t-44.5 -5l585 1421q19 -4 38.5 -4h39.5h29h22q19 4 27 4l569 -1425q-41 0 -63 2q-109 10 -113 10q-41 0 -63 -2q-109 -10 -113 -10q-72 250 -143 430zM422 545h373l-181 475z
M964 1890l2 -18l-2 -43q0 -41 -59 -96q-43 -41 -107 -78q-39 -19 -55 -41q-14 -27 -18 -35l-9 -35v-28h-51v83q0 29 94 144q46 55 46 115q0 24 -16.5 61t-39.5 49q-24 19 -74 19q-8 0 -29.5 -17.5t-27.5 -23.5q25 -19 36 -33.5t11 -36.5q0 -37 -31.5 -64.5t-70.5 -27.5
q-37 0 -61.5 26.5t-24.5 65.5l4 22q25 52 70 87q69 53 174 53q112 0 178 -53q45 -37 61 -95z" />
    <glyph glyph-name=".notdef.064" unicode="&#x1ea3;" 
d="M606 328v200q-61 -22 -98 -34q-68 -25 -105.5 -54.5t-52 -69.5t-14.5 -100q0 -69 25.5 -116.5t89.5 -47.5q84 0 122 72q33 60 33 150zM889 729v-557q0 -102 86 -102l16 4v-45q-43 -21 -95 -39.5t-89 -18.5q-70 0 -123 41t-78 111q-39 -70 -110.5 -111t-151.5 -41
q-133 0 -214 70t-81 201q0 141 90 209q74 55 287 106q47 12 74 21q45 14 73 32q17 15 25 35.5t8 42.5q0 74 -61.5 127t-134.5 53q-88 0 -170 -49q-68 -41 -80 -78h-13l-28 123q69 64 175.5 102t205.5 38q153 0 258 -60q131 -74 131 -215zM770 1464l2 -18l-2 -43
q0 -41 -59 -96q-43 -41 -107 -78q-39 -19 -55 -41q-14 -27 -18 -35l-9 -35v-28h-51v84q0 28 94 143q46 55 46 115q0 24 -16.5 61t-39.5 49q-24 19 -73 19q-9 0 -30.5 -17.5t-27.5 -23.5q25 -19 36 -33t11 -37q0 -37 -31.5 -64.5t-70.5 -27.5q-37 0 -61.5 26.5t-24.5 65.5
l4 23q25 51 70 86q69 53 174 53q112 0 178 -53q45 -37 61 -95z" />
    <glyph glyph-name=".notdef.113" unicode="&#x1ea4;" horiz-adv-x="1376" 
d="M844 418h-479q-41 -117 -58 -166q-59 -170 -86 -260q-18 2 -41.5 5t-52.5 3q-25 0 -53.5 -3t-44.5 -5l585 1421q19 -4 38.5 -4h39.5h29h22q19 4 27 4l569 -1425q-41 0 -63 2q-109 10 -113 10q-41 0 -63 -2q-109 -10 -113 -10q-72 250 -143 430zM422 545h373l-181 475z
M586 1868h192l250 -361h-115l-229 205l-234 -205h-110zM899 1792l266 307q62 74 135 74q37 0 64 -27t27 -63q0 -35 -17.5 -56.5t-89.5 -66.5l-270 -168h-115z" />
    <glyph glyph-name=".notdef.059" unicode="&#x1ea5;" 
d="M606 328v200q-61 -22 -98 -34q-68 -25 -105.5 -54.5t-52 -69.5t-14.5 -100q0 -69 25.5 -116.5t89.5 -47.5q84 0 122 72q33 60 33 150zM889 729v-557q0 -102 86 -102l16 4v-45q-43 -21 -95 -39.5t-89 -18.5q-70 0 -123 41t-78 111q-39 -70 -110.5 -111t-151.5 -41
q-133 0 -214 70t-81 201q0 141 90 209q74 55 287 106q47 12 74 21q45 14 73 32q17 15 25 35.5t8 42.5q0 74 -61.5 127t-134.5 53q-88 0 -170 -49q-68 -41 -80 -78h-13l-28 123q69 64 175.5 102t205.5 38q153 0 258 -60q131 -74 131 -215zM413 1458h188l254 -360h-119
l-229 200l-229 -200h-115zM726 1381l266 307q62 74 135 74q37 0 64 -27t27 -63q0 -35 -17.5 -56.5t-89.5 -66.5l-270 -168h-115z" />
    <glyph glyph-name=".notdef.112" unicode="&#x1ea6;" horiz-adv-x="1376" 
d="M844 418h-479q-41 -117 -58 -166q-59 -170 -86 -260q-18 2 -41.5 5t-52.5 3q-25 0 -53.5 -3t-44.5 -5l585 1421q19 -4 38.5 -4h39.5h29h22q19 4 27 4l569 -1425q-41 0 -63 2q-109 10 -113 10q-41 0 -63 -2q-109 -10 -113 -10q-72 250 -143 430zM422 545h373l-181 475z
M586 1868h192l250 -361h-115l-229 205l-234 -205h-110zM941 2098l262 -307h-115l-266 168q-56 33 -72 47q-35 33 -35 76q0 36 24.5 63t65.5 27q45 0 76 -19q21 -12 60 -55z" />
    <glyph glyph-name=".notdef.060" unicode="&#x1ea7;" 
d="M606 328v200q-61 -22 -98 -34q-68 -25 -105.5 -54.5t-52 -69.5t-14.5 -100q0 -69 25.5 -116.5t89.5 -47.5q84 0 122 72q33 60 33 150zM889 729v-557q0 -102 86 -102l16 4v-45q-43 -21 -95 -39.5t-89 -18.5q-70 0 -123 41t-78 111q-39 -70 -110.5 -111t-151.5 -41
q-133 0 -214 70t-81 201q0 141 90 209q74 55 287 106q47 12 74 21q45 14 73 32q17 15 25 35.5t8 42.5q0 74 -61.5 127t-134.5 53q-88 0 -170 -49q-68 -41 -80 -78h-13l-28 123q69 64 175.5 102t205.5 38q153 0 258 -60q131 -74 131 -215zM413 1458h188l254 -360h-119
l-229 200l-229 -200h-115zM764 1688l262 -307h-115l-266 168q-56 33 -72 47q-35 33 -35 76q0 36 24.5 63t65.5 27q45 0 76 -19q21 -12 60 -55z" />
    <glyph glyph-name=".notdef.114" unicode="&#x1ea8;" horiz-adv-x="1376" 
d="M844 418h-479q-41 -117 -58 -166q-59 -170 -86 -260q-18 2 -41.5 5t-52.5 3q-25 0 -53.5 -3t-44.5 -5l585 1421q19 -4 38.5 -4h39.5h29h22q19 4 27 4l569 -1425q-41 0 -63 2q-109 10 -113 10q-41 0 -63 -2q-109 -10 -113 -10q-72 250 -143 430zM422 545h373l-181 475z
M586 1868h192l250 -361h-115l-229 205l-234 -205h-110zM1257 2118l2 -18l-2 -43q0 -41 -59 -96q-43 -41 -107 -78q-39 -19 -55 -41q-14 -27 -18 -35l-9 -35v-28h-51v83q0 29 94 144q46 55 46 115q0 24 -16.5 61t-39.5 49q-24 19 -74 19q-8 0 -29.5 -17.5t-27.5 -23.5
q25 -19 36 -33.5t11 -36.5q0 -37 -31.5 -64.5t-70.5 -27.5q-37 0 -61.5 26.5t-24.5 65.5l4 22q25 52 70 87q69 53 174 53q112 0 178 -53q45 -37 61 -95z" />
    <glyph glyph-name=".notdef.058" unicode="&#x1ea9;" 
d="M606 328v200q-61 -22 -98 -34q-68 -25 -105.5 -54.5t-52 -69.5t-14.5 -100q0 -69 25.5 -116.5t89.5 -47.5q84 0 122 72q33 60 33 150zM889 729v-557q0 -102 86 -102l16 4v-45q-43 -21 -95 -39.5t-89 -18.5q-70 0 -123 41t-78 111q-39 -70 -110.5 -111t-151.5 -41
q-133 0 -214 70t-81 201q0 141 90 209q74 55 287 106q47 12 74 21q45 14 73 32q17 15 25 35.5t8 42.5q0 74 -61.5 127t-134.5 53q-88 0 -170 -49q-68 -41 -80 -78h-13l-28 123q69 64 175.5 102t205.5 38q153 0 258 -60q131 -74 131 -215zM413 1458h188l254 -360h-119
l-229 200l-229 -200h-115zM1081 1708l2 -18l-2 -43q0 -41 -59 -96q-43 -41 -107 -78q-39 -19 -55 -41q-14 -27 -18 -35l-9 -35v-28h-51v83q0 29 94 144q46 55 46 115q0 24 -16.5 61t-39.5 49q-24 19 -74 19q-8 0 -29.5 -17.5t-27.5 -23.5q25 -19 36 -33.5t11 -36.5
q0 -37 -31.5 -64.5t-70.5 -27.5q-37 0 -61.5 26.5t-24.5 65.5l4 22q25 52 70 87q69 53 174 53q112 0 178 -53q45 -37 61 -95z" />
    <glyph glyph-name=".notdef.115" unicode="&#x1eaa;" horiz-adv-x="1376" 
d="M844 418h-479q-41 -117 -58 -166q-59 -170 -86 -260q-18 2 -41.5 5t-52.5 3q-25 0 -53.5 -3t-44.5 -5l585 1421q19 -4 38.5 -4h39.5h29h22q19 4 27 4l569 -1425q-41 0 -63 2q-109 10 -113 10q-41 0 -63 -2q-109 -10 -113 -10q-72 250 -143 430zM422 545h373l-181 475z
M586 1868h192l250 -361h-115l-229 205l-234 -205h-110zM943 2202h73q-22 -115 -65 -176q-57 -82 -152 -82q-39 0 -71 12q-9 4 -62 30.5t-78 37.5q-49 22 -75 22q-41 0 -61.5 -34.5t-20.5 -63.5h-74q0 106 74 188q59 66 143 66q47 0 107 -27q43 -22 61 -31q31 -18 57.5 -29
t48.5 -11q35 0 60 30q14 19 35 68z" />
    <glyph glyph-name=".notdef.057" unicode="&#x1eab;" 
d="M606 328v200q-61 -22 -98 -34q-68 -25 -105.5 -54.5t-52 -69.5t-14.5 -100q0 -69 25.5 -116.5t89.5 -47.5q84 0 122 72q33 60 33 150zM889 729v-557q0 -102 86 -102l16 4v-45q-43 -21 -95 -39.5t-89 -18.5q-70 0 -123 41t-78 111q-39 -70 -110.5 -111t-151.5 -41
q-133 0 -214 70t-81 201q0 141 90 209q74 55 287 106q47 12 74 21q45 14 73 32q17 15 25 35.5t8 42.5q0 74 -61.5 127t-134.5 53q-88 0 -170 -49q-68 -41 -80 -78h-13l-28 123q69 64 175.5 102t205.5 38q153 0 258 -60q131 -74 131 -215zM413 1458h188l254 -360h-119
l-229 200l-229 -200h-115zM767 1792h73q-22 -115 -65 -176q-57 -82 -152 -82q-39 0 -71 12q-9 4 -62 30.5t-78 37.5q-49 22 -75 22q-41 0 -61.5 -34.5t-20.5 -63.5h-74q0 106 74 188q59 66 143 66q47 0 107 -27q43 -22 61 -31q31 -18 57.5 -29t48.5 -11q35 0 60 30
q14 19 35 68z" />
    <glyph glyph-name=".notdef.116" unicode="&#x1eac;" horiz-adv-x="1376" 
d="M844 418h-479q-41 -117 -58 -166q-59 -170 -86 -260q-18 2 -41.5 5t-52.5 3q-25 0 -53.5 -3t-44.5 -5l585 1421q19 -4 38.5 -4h39.5h29h22q19 4 27 4l569 -1425q-41 0 -63 2q-109 10 -113 10q-41 0 -63 -2q-109 -10 -113 -10q-72 250 -143 430zM422 545h373l-181 475z
M586 1868h192l250 -361h-115l-229 205l-234 -205h-110zM461 -279q0 66 47 113t113 47q65 0 114 -47t49 -113q0 -67 -48 -115t-115 -48q-66 0 -113 49t-47 114z" />
    <glyph glyph-name=".notdef.056" unicode="&#x1ead;" 
d="M606 328v200q-61 -22 -98 -34q-68 -25 -105.5 -54.5t-52 -69.5t-14.5 -100q0 -69 25.5 -116.5t89.5 -47.5q84 0 122 72q33 60 33 150zM889 729v-557q0 -102 86 -102l16 4v-45q-43 -21 -95 -39.5t-89 -18.5q-70 0 -123 41t-78 111q-39 -70 -110.5 -111t-151.5 -41
q-133 0 -214 70t-81 201q0 141 90 209q74 55 287 106q47 12 74 21q45 14 73 32q17 15 25 35.5t8 42.5q0 74 -61.5 127t-134.5 53q-88 0 -170 -49q-68 -41 -80 -78h-13l-28 123q69 64 175.5 102t205.5 38q153 0 258 -60q131 -74 131 -215zM413 1458h188l254 -360h-119
l-229 200l-229 -200h-115zM305 -279q0 66 47 113t113 47q65 0 114 -47t49 -113q0 -67 -48 -115t-115 -48q-66 0 -113 49t-47 114z" />
    <glyph glyph-name=".notdef.119" unicode="&#x1eae;" horiz-adv-x="1376" 
d="M844 418h-479q-41 -117 -58 -166q-59 -170 -86 -260q-18 2 -41.5 5t-52.5 3q-25 0 -53.5 -3t-44.5 -5l585 1421q19 -4 38.5 -4h39.5h29h22q19 4 27 4l569 -1425q-41 0 -63 2q-109 10 -113 10q-41 0 -63 -2q-109 -10 -113 -10q-72 250 -143 430zM422 545h373l-181 475z
M988 1761q-22 -116 -99 -185t-200 -69q-129 0 -209 67.5t-98 186.5h106q27 -53 77 -75.5t124 -22.5q70 0 117 23.5t71 74.5h111zM548 1780l266 307q62 74 135 74q37 0 64 -27t27 -63q0 -35 -17.5 -56.5t-89.5 -66.5l-270 -168h-115z" />
    <glyph glyph-name=".notdef.053" unicode="&#x1eaf;" 
d="M606 328v200q-61 -22 -98 -34q-68 -25 -105.5 -54.5t-52 -69.5t-14.5 -100q0 -69 25.5 -116.5t89.5 -47.5q84 0 122 72q33 60 33 150zM889 729v-557q0 -102 86 -102l16 4v-45q-43 -21 -95 -39.5t-89 -18.5q-70 0 -123 41t-78 111q-39 -70 -110.5 -111t-151.5 -41
q-133 0 -214 70t-81 201q0 141 90 209q74 55 287 106q47 12 74 21q45 14 73 32q17 15 25 35.5t8 42.5q0 74 -61.5 127t-134.5 53q-88 0 -170 -49q-68 -41 -80 -78h-13l-28 123q69 64 175.5 102t205.5 38q153 0 258 -60q131 -74 131 -215zM818 1333q-23 -117 -99.5 -185.5
t-199.5 -68.5q-129 0 -209 67.5t-98 186.5h106q27 -53 77 -75.5t124 -22.5q70 0 117 23.5t71 74.5h111zM377 1351l266 307q62 74 135 74q37 0 64 -27t27 -63q0 -35 -17.5 -56.5t-89.5 -66.5l-270 -168h-115z" />
    <glyph glyph-name=".notdef.118" unicode="&#x1eb0;" horiz-adv-x="1376" 
d="M844 418h-479q-41 -117 -58 -166q-59 -170 -86 -260q-18 2 -41.5 5t-52.5 3q-25 0 -53.5 -3t-44.5 -5l585 1421q19 -4 38.5 -4h39.5h29h22q19 4 27 4l569 -1425q-41 0 -63 2q-109 10 -113 10q-41 0 -63 -2q-109 -10 -113 -10q-72 250 -143 430zM422 545h373l-181 475z
M988 1761q-22 -116 -99 -185t-200 -69q-129 0 -209 67.5t-98 186.5h106q27 -53 77 -75.5t124 -22.5q70 0 117 23.5t71 74.5h111zM553 2085l262 -307h-115l-266 168q-56 33 -72 47q-35 33 -35 76q0 36 24.5 63t65.5 27q45 0 76 -19q21 -12 60 -55z" />
    <glyph glyph-name=".notdef.054" unicode="&#x1eb1;" 
d="M606 328v200q-61 -22 -98 -34q-68 -25 -105.5 -54.5t-52 -69.5t-14.5 -100q0 -69 25.5 -116.5t89.5 -47.5q84 0 122 72q33 60 33 150zM889 729v-557q0 -102 86 -102l16 4v-45q-43 -21 -95 -39.5t-89 -18.5q-70 0 -123 41t-78 111q-39 -70 -110.5 -111t-151.5 -41
q-133 0 -214 70t-81 201q0 141 90 209q74 55 287 106q47 12 74 21q45 14 73 32q17 15 25 35.5t8 42.5q0 74 -61.5 127t-134.5 53q-88 0 -170 -49q-68 -41 -80 -78h-13l-28 123q69 64 175.5 102t205.5 38q153 0 258 -60q131 -74 131 -215zM818 1333q-23 -117 -99.5 -185.5
t-199.5 -68.5q-129 0 -209 67.5t-98 186.5h106q27 -53 77 -75.5t124 -22.5q70 0 117 23.5t71 74.5h111zM383 1657l262 -307h-115l-266 168q-56 33 -72 47q-35 33 -35 76q0 36 24.5 63t65.5 27q45 0 76 -19q21 -12 60 -55z" />
    <glyph glyph-name=".notdef.120" unicode="&#x1eb2;" horiz-adv-x="1376" 
d="M844 418h-479q-41 -117 -58 -166q-59 -170 -86 -260q-18 2 -41.5 5t-52.5 3q-25 0 -53.5 -3t-44.5 -5l585 1421q19 -4 38.5 -4h39.5h29h22q19 4 27 4l569 -1425q-41 0 -63 2q-109 10 -113 10q-41 0 -63 -2q-109 -10 -113 -10q-72 250 -143 430zM422 545h373l-181 475z
M988 1761q-22 -116 -99 -185t-200 -69q-129 0 -209 67.5t-98 186.5h106q27 -53 77 -75.5t124 -22.5q70 0 117 23.5t71 74.5h111zM959 2118l2 -18l-2 -43q0 -41 -59 -96q-43 -41 -107 -78q-39 -19 -55 -41q-14 -27 -18 -35l-9 -35v-28h-51v83q0 29 94 144q46 55 46 115
q0 24 -16.5 61t-39.5 49q-24 19 -74 19q-8 0 -29.5 -17.5t-27.5 -23.5q25 -19 36 -33.5t11 -36.5q0 -37 -31.5 -64.5t-70.5 -27.5q-37 0 -61.5 26.5t-24.5 65.5l4 22q25 52 70 87q69 53 174 53q112 0 178 -53q45 -37 61 -95z" />
    <glyph glyph-name=".notdef.052" unicode="&#x1eb3;" 
d="M606 328v200q-61 -22 -98 -34q-68 -25 -105.5 -54.5t-52 -69.5t-14.5 -100q0 -69 25.5 -116.5t89.5 -47.5q84 0 122 72q33 60 33 150zM889 729v-557q0 -102 86 -102l16 4v-45q-43 -21 -95 -39.5t-89 -18.5q-70 0 -123 41t-78 111q-39 -70 -110.5 -111t-151.5 -41
q-133 0 -214 70t-81 201q0 141 90 209q74 55 287 106q47 12 74 21q45 14 73 32q17 15 25 35.5t8 42.5q0 74 -61.5 127t-134.5 53q-88 0 -170 -49q-68 -41 -80 -78h-13l-28 123q69 64 175.5 102t205.5 38q153 0 258 -60q131 -74 131 -215zM818 1333q-23 -117 -99.5 -185.5
t-199.5 -68.5q-129 0 -209 67.5t-98 186.5h106q27 -53 77 -75.5t124 -22.5q70 0 117 23.5t71 74.5h111zM787 1689l2 -18l-2 -43q0 -41 -59 -96q-43 -41 -107 -78q-39 -19 -55 -41q-14 -27 -18 -35l-9 -35v-28h-51v83q0 29 94 144q46 55 46 115q0 24 -16.5 61t-39.5 49
q-24 19 -74 19q-8 0 -29.5 -17.5t-27.5 -23.5q25 -19 36 -33.5t11 -36.5q0 -37 -31.5 -64.5t-70.5 -27.5q-37 0 -61.5 26.5t-24.5 65.5l4 22q25 52 70 87q69 53 174 53q112 0 178 -53q45 -37 61 -95z" />
    <glyph glyph-name=".notdef.121" unicode="&#x1eb4;" horiz-adv-x="1376" 
d="M844 418h-479q-41 -117 -58 -166q-59 -170 -86 -260q-18 2 -41.5 5t-52.5 3q-25 0 -53.5 -3t-44.5 -5l585 1421q19 -4 38.5 -4h39.5h29h22q19 4 27 4l569 -1425q-41 0 -63 2q-109 10 -113 10q-41 0 -63 -2q-109 -10 -113 -10q-72 250 -143 430zM422 545h373l-181 475z
M988 1761q-22 -116 -99 -185t-200 -69q-129 0 -209 67.5t-98 186.5h106q27 -53 77 -75.5t124 -22.5q70 0 117 23.5t71 74.5h111zM951 2095h73q-22 -115 -65 -176q-57 -82 -152 -82q-39 0 -71 12q-9 4 -62 30.5t-78 37.5q-49 22 -75 22q-41 0 -61.5 -34.5t-20.5 -63.5h-74
q0 106 74 188q59 66 143 66q47 0 107 -27q43 -22 61 -31q31 -18 57.5 -29t48.5 -11q35 0 60 30q14 19 35 68z" />
    <glyph glyph-name=".notdef.051" unicode="&#x1eb5;" 
d="M606 328v200q-61 -22 -98 -34q-68 -25 -105.5 -54.5t-52 -69.5t-14.5 -100q0 -69 25.5 -116.5t89.5 -47.5q84 0 122 72q33 60 33 150zM889 729v-557q0 -102 86 -102l16 4v-45q-43 -21 -95 -39.5t-89 -18.5q-70 0 -123 41t-78 111q-39 -70 -110.5 -111t-151.5 -41
q-133 0 -214 70t-81 201q0 141 90 209q74 55 287 106q47 12 74 21q45 14 73 32q17 15 25 35.5t8 42.5q0 74 -61.5 127t-134.5 53q-88 0 -170 -49q-68 -41 -80 -78h-13l-28 123q69 64 175.5 102t205.5 38q153 0 258 -60q131 -74 131 -215zM818 1333q-22 -116 -99 -185
t-200 -69q-129 0 -209 67.5t-98 186.5h106q27 -53 77 -75.5t124 -22.5q70 0 117 23.5t71 74.5h111zM781 1667h73q-22 -115 -65 -176q-57 -82 -152 -82q-39 0 -71 12q-9 4 -62 30.5t-78 37.5q-49 22 -75 22q-41 0 -61.5 -34.5t-20.5 -63.5h-74q0 106 74 188q59 66 143 66
q47 0 107 -27q43 -22 61 -31q31 -18 57.5 -29t48.5 -11q35 0 60 30q14 19 35 68z" />
    <glyph glyph-name=".notdef.122" unicode="&#x1eb6;" horiz-adv-x="1376" 
d="M844 418h-479q-41 -117 -58 -166q-59 -170 -86 -260q-18 2 -41.5 5t-52.5 3q-25 0 -53.5 -3t-44.5 -5l585 1421q19 -4 38.5 -4h39.5h29h22q19 4 27 4l569 -1425q-41 0 -63 2q-109 10 -113 10q-41 0 -63 -2q-109 -10 -113 -10q-72 250 -143 430zM422 545h373l-181 475z
M988 1761q-22 -116 -99 -185t-200 -69q-129 0 -209 67.5t-98 186.5h106q27 -53 77 -75.5t124 -22.5q70 0 117 23.5t71 74.5h111zM461 -279q0 66 47 113t113 47q65 0 114 -47t49 -113q0 -67 -48 -115t-115 -48q-66 0 -113 49t-47 114z" />
    <glyph glyph-name=".notdef.050" unicode="&#x1eb7;" 
d="M606 328v200q-61 -22 -98 -34q-68 -25 -105.5 -54.5t-52 -69.5t-14.5 -100q0 -69 25.5 -116.5t89.5 -47.5q84 0 122 72q33 60 33 150zM889 729v-557q0 -102 86 -102l16 4v-45q-43 -21 -95 -39.5t-89 -18.5q-70 0 -123 41t-78 111q-39 -70 -110.5 -111t-151.5 -41
q-133 0 -214 70t-81 201q0 141 90 209q74 55 287 106q47 12 74 21q45 14 73 32q17 15 25 35.5t8 42.5q0 74 -61.5 127t-134.5 53q-88 0 -170 -49q-68 -41 -80 -78h-13l-28 123q69 64 175.5 102t205.5 38q153 0 258 -60q131 -74 131 -215zM818 1333q-23 -117 -99.5 -185.5
t-199.5 -68.5q-129 0 -209 67.5t-98 186.5h106q27 -53 77 -75.5t124 -22.5q70 0 117 23.5t71 74.5h111zM305 -279q0 66 47 113t113 47q65 0 114 -47t49 -113q0 -67 -48 -115t-115 -48q-66 0 -113 49t-47 114z" />
    <glyph glyph-name=".notdef.127" unicode="&#x1eb8;" horiz-adv-x="1270" 
d="M160 1397h942q-4 -23 -8 -53.5t-4 -36.5l12 -86q-105 10 -261.5 19t-299.5 9h-74v-442h328q96 0 145 3t154 17q-9 -45 -17 -90q0 -16 5 -40.5t12 -45.5q-54 4 -148 10.5t-151 6.5h-328v-521q178 0 349 8.5t286 20.5l-12 -86q0 -18 4 -42.5t8 -47.5h-942v1397zM461 -279
q0 66 47 113t113 47q65 0 114 -47t49 -113q0 -67 -48 -115t-115 -48q-66 0 -113 49t-47 114z" />
    <glyph glyph-name=".notdef.045" unicode="&#x1eb9;" 
d="M377 586h303q0 125 -21 200q-32 123 -114 123q-101 0 -142 -121q-26 -77 -26 -202zM963 487h-586l-4 -32q0 -160 65 -248q74 -101 221 -101q64 0 126.5 24t115.5 67l25 -17l-45 -114q-136 -95 -295 -95q-252 0 -382 142.5t-130 398.5q0 219 125 355.5t342 136.5
q215 0 323 -130q99 -116 99 -325v-62zM356 -279q0 66 47 113t113 47q65 0 114 -47t49 -113q0 -67 -48 -115t-115 -48q-66 0 -113 49t-47 114z" />
    <glyph glyph-name=".notdef.125" unicode="&#x1eba;" horiz-adv-x="1270" 
d="M160 1397h942q-4 -23 -8 -53.5t-4 -36.5l12 -86q-105 10 -261.5 19t-299.5 9h-74v-442h328q96 0 145 3t154 17q-9 -45 -17 -90q0 -16 5 -40.5t12 -45.5q-54 4 -148 10.5t-151 6.5h-328v-521q178 0 349 8.5t286 20.5l-12 -86q0 -18 4 -42.5t8 -47.5h-942v1397zM917 1890
l2 -18l-2 -43q0 -41 -59 -96q-43 -41 -107 -78q-39 -19 -55 -41q-14 -27 -18 -35l-9 -35v-28h-51v83q0 29 94 144q46 55 46 115q0 24 -16.5 61t-39.5 49q-24 19 -74 19q-8 0 -29.5 -17.5t-27.5 -23.5q25 -19 36 -33.5t11 -36.5q0 -37 -31.5 -64.5t-70.5 -27.5
q-37 0 -61.5 26.5t-24.5 65.5l4 22q25 52 70 87q69 53 174 53q112 0 178 -53q45 -37 61 -95z" />
    <glyph glyph-name=".notdef.047" unicode="&#x1ebb;" 
d="M377 586h303q0 125 -21 200q-32 123 -114 123q-101 0 -142 -121q-26 -77 -26 -202zM963 487h-586l-4 -32q0 -160 65 -248q74 -101 221 -101q64 0 126.5 24t115.5 67l25 -17l-45 -114q-136 -95 -295 -95q-252 0 -382 142.5t-130 398.5q0 219 125 355.5t342 136.5
q215 0 323 -130q99 -116 99 -325v-62zM816 1464l2 -18l-2 -43q0 -41 -59 -96q-43 -41 -107 -78q-39 -19 -55 -41q-14 -27 -18 -35l-9 -35v-28h-51v84q0 28 94 143q46 55 46 115q0 24 -16.5 61t-39.5 49q-24 19 -73 19q-9 0 -30.5 -17.5t-27.5 -23.5q25 -19 36 -33t11 -37
q0 -37 -31.5 -64.5t-70.5 -27.5q-37 0 -61.5 26.5t-24.5 65.5l4 23q25 51 70 86q69 53 174 53q112 0 178 -53q45 -37 61 -95z" />
    <glyph glyph-name=".notdef.126" unicode="&#x1ebc;" horiz-adv-x="1270" 
d="M160 1397h942q-4 -23 -8 -53.5t-4 -36.5l12 -86q-105 10 -261.5 19t-299.5 9h-74v-442h328q96 0 145 3t154 17q-9 -45 -17 -90q0 -16 5 -40.5t12 -45.5q-54 4 -148 10.5t-151 6.5h-328v-521q178 0 349 8.5t286 20.5l-12 -86q0 -18 4 -42.5t8 -47.5h-942v1397zM921 1827
h73q-22 -115 -65 -176q-57 -82 -152 -82q-39 0 -71 12q-9 4 -62 30.5t-78 37.5q-49 22 -75 22q-41 0 -61.5 -34.5t-20.5 -63.5h-74q0 106 74 188q59 66 143 66q47 0 107 -27q43 -22 61 -31q31 -18 57.5 -29t48.5 -11q35 0 60 30q14 19 35 68z" />
    <glyph glyph-name=".notdef.046" unicode="&#x1ebd;" 
d="M377 586h303q0 125 -21 200q-32 123 -114 123q-101 0 -142 -121q-26 -77 -26 -202zM963 487h-586l-4 -32q0 -160 65 -248q74 -101 221 -101q64 0 126.5 24t115.5 67l25 -17l-45 -114q-136 -95 -295 -95q-252 0 -382 142.5t-130 398.5q0 219 125 355.5t342 136.5
q215 0 323 -130q99 -116 99 -325v-62zM798 1393h74q-22 -115 -65 -176q-58 -82 -152 -82q-39 0 -72 12l-61 30.5t-78 36.5q-49 23 -76 23q-41 0 -61.5 -35t-20.5 -63h-73q0 106 73 188q60 66 144 66q47 0 106 -27q43 -23 62 -31q30 -18 57 -29.5t49 -11.5q35 0 60 31
q14 18 34 68z" />
    <glyph glyph-name=".notdef.130" unicode="&#x1ebe;" horiz-adv-x="1270" 
d="M160 1397h942q-4 -23 -8 -53.5t-4 -36.5l12 -86q-105 10 -261.5 19t-299.5 9h-74v-442h328q96 0 145 3t154 17q-9 -45 -17 -90q0 -16 5 -40.5t12 -45.5q-54 4 -148 10.5t-151 6.5h-328v-521q178 0 349 8.5t286 20.5l-12 -86q0 -18 4 -42.5t8 -47.5h-942v1397zM533 1868
h192l250 -361h-115l-229 205l-234 -205h-110zM846 1792l266 307q62 74 135 74q37 0 64 -27t27 -63q0 -35 -17.5 -56.5t-89.5 -66.5l-270 -168h-115z" />
    <glyph glyph-name=".notdef.042" unicode="&#x1ebf;" 
d="M377 586h303q0 125 -21 200q-32 123 -114 123q-101 0 -142 -121q-26 -77 -26 -202zM963 487h-586l-4 -32q0 -160 65 -248q74 -101 221 -101q64 0 126.5 24t115.5 67l25 -17l-45 -114q-136 -95 -295 -95q-252 0 -382 142.5t-130 398.5q0 219 125 355.5t342 136.5
q215 0 323 -130q99 -116 99 -325v-62zM449 1458h188l254 -360h-119l-229 200l-229 -200h-115zM762 1381l266 307q62 74 135 74q37 0 64 -27t27 -63q0 -35 -17.5 -56.5t-89.5 -66.5l-270 -168h-115z" />
    <glyph glyph-name=".notdef.129" unicode="&#x1ec0;" horiz-adv-x="1270" 
d="M160 1397h942q-4 -23 -8 -53.5t-4 -36.5l12 -86q-105 10 -261.5 19t-299.5 9h-74v-442h328q96 0 145 3t154 17q-9 -45 -17 -90q0 -16 5 -40.5t12 -45.5q-54 4 -148 10.5t-151 6.5h-328v-521q178 0 349 8.5t286 20.5l-12 -86q0 -18 4 -42.5t8 -47.5h-942v1397zM533 1868
h192l250 -361h-115l-229 205l-234 -205h-110zM888 2098l262 -307h-115l-266 168q-56 33 -72 47q-35 33 -35 76q0 36 24.5 63t65.5 27q45 0 76 -19q21 -12 60 -55z" />
    <glyph glyph-name=".notdef.043" unicode="&#x1ec1;" 
d="M377 586h303q0 125 -21 200q-32 123 -114 123q-101 0 -142 -121q-26 -77 -26 -202zM963 487h-586l-4 -32q0 -160 65 -248q74 -101 221 -101q64 0 126.5 24t115.5 67l25 -17l-45 -114q-136 -95 -295 -95q-252 0 -382 142.5t-130 398.5q0 219 125 355.5t342 136.5
q215 0 323 -130q99 -116 99 -325v-62zM449 1458h188l254 -360h-119l-229 200l-229 -200h-115zM804 1688l262 -307h-115l-266 168q-56 33 -72 47q-35 33 -35 76q0 36 24.5 63t65.5 27q45 0 76 -19q21 -12 60 -55z" />
    <glyph glyph-name=".notdef.131" unicode="&#x1ec2;" horiz-adv-x="1270" 
d="M160 1397h942q-4 -23 -8 -53.5t-4 -36.5l12 -86q-105 10 -261.5 19t-299.5 9h-74v-442h328q96 0 145 3t154 17q-9 -45 -17 -90q0 -16 5 -40.5t12 -45.5q-54 4 -148 10.5t-151 6.5h-328v-521q178 0 349 8.5t286 20.5l-12 -86q0 -18 4 -42.5t8 -47.5h-942v1397zM533 1868
h192l250 -361h-115l-229 205l-234 -205h-110zM1204 2118l2 -18l-2 -43q0 -41 -59 -96q-43 -41 -107 -78q-39 -19 -55 -41q-14 -27 -18 -35l-9 -35v-28h-51v83q0 29 94 144q46 55 46 115q0 24 -16.5 61t-39.5 49q-24 19 -74 19q-8 0 -29.5 -17.5t-27.5 -23.5q25 -19 36 -33.5
t11 -36.5q0 -37 -31.5 -64.5t-70.5 -27.5q-37 0 -61.5 26.5t-24.5 65.5l4 22q25 52 70 87q69 53 174 53q112 0 178 -53q45 -37 61 -95z" />
    <glyph glyph-name=".notdef.041" unicode="&#x1ec3;" 
d="M377 586h303q0 125 -21 200q-32 123 -114 123q-101 0 -142 -121q-26 -77 -26 -202zM963 487h-586l-4 -32q0 -160 65 -248q74 -101 221 -101q64 0 126.5 24t115.5 67l25 -17l-45 -114q-136 -95 -295 -95q-252 0 -382 142.5t-130 398.5q0 219 125 355.5t342 136.5
q215 0 323 -130q99 -116 99 -325v-62zM449 1458h188l254 -360h-119l-229 200l-229 -200h-115zM1118 1708l2 -18l-2 -43q0 -41 -59 -96q-43 -41 -107 -78q-39 -19 -55 -41q-14 -27 -18 -35l-9 -35v-28h-51v83q0 29 94 144q46 55 46 115q0 24 -16.5 61t-39.5 49q-24 19 -74 19
q-8 0 -29.5 -17.5t-27.5 -23.5q25 -19 36 -33.5t11 -36.5q0 -37 -31.5 -64.5t-70.5 -27.5q-37 0 -61.5 26.5t-24.5 65.5l4 22q25 52 70 87q69 53 174 53q112 0 178 -53q45 -37 61 -95z" />
    <glyph glyph-name=".notdef.132" unicode="&#x1ec4;" horiz-adv-x="1270" 
d="M160 1397h942q-4 -23 -8 -53.5t-4 -36.5l12 -86q-105 10 -261.5 19t-299.5 9h-74v-442h328q96 0 145 3t154 17q-9 -45 -17 -90q0 -16 5 -40.5t12 -45.5q-54 4 -148 10.5t-151 6.5h-328v-521q178 0 349 8.5t286 20.5l-12 -86q0 -18 4 -42.5t8 -47.5h-942v1397zM533 1868
h192l250 -361h-115l-229 205l-234 -205h-110zM891 2202h73q-22 -115 -65 -176q-57 -82 -152 -82q-39 0 -71 12q-9 4 -62 30.5t-78 37.5q-49 22 -75 22q-41 0 -61.5 -34.5t-20.5 -63.5h-74q0 106 74 188q59 66 143 66q47 0 107 -27q43 -22 61 -31q31 -18 57.5 -29t48.5 -11
q35 0 60 30q14 19 35 68z" />
    <glyph glyph-name=".notdef.040" unicode="&#x1ec5;" 
d="M377 586h303q0 125 -21 200q-32 123 -114 123q-101 0 -142 -121q-26 -77 -26 -202zM963 487h-586l-4 -32q0 -160 65 -248q74 -101 221 -101q64 0 126.5 24t115.5 67l25 -17l-45 -114q-136 -95 -295 -95q-252 0 -382 142.5t-130 398.5q0 219 125 355.5t342 136.5
q215 0 323 -130q99 -116 99 -325v-62zM449 1458h188l254 -360h-119l-229 200l-229 -200h-115zM803 1792h73q-22 -115 -65 -176q-57 -82 -152 -82q-39 0 -71 12q-9 4 -62 30.5t-78 37.5q-49 22 -75 22q-41 0 -61.5 -34.5t-20.5 -63.5h-74q0 106 74 188q59 66 143 66
q47 0 107 -27q43 -22 61 -31q31 -18 57.5 -29t48.5 -11q35 0 60 30q14 19 35 68z" />
    <glyph glyph-name=".notdef.105" unicode="&#x1ec6;" horiz-adv-x="1270" 
d="M160 1397h942q-4 -23 -8 -53.5t-4 -36.5l12 -86q-105 10 -261.5 19t-299.5 9h-74v-442h328q96 0 145 3t154 17q-9 -45 -17 -90q0 -16 5 -40.5t12 -45.5q-54 4 -148 10.5t-151 6.5h-328v-521q178 0 349 8.5t286 20.5l-12 -86q0 -18 4 -42.5t8 -47.5h-942v1397zM533 1868
h192l250 -361h-115l-229 205l-234 -205h-110zM461 -279q0 66 47 113t113 47q65 0 114 -47t49 -113q0 -67 -48 -115t-115 -48q-66 0 -113 49t-47 114z" />
    <glyph glyph-name=".notdef.039" unicode="&#x1ec7;" 
d="M377 586h303q0 125 -21 200q-32 123 -114 123q-101 0 -142 -121q-26 -77 -26 -202zM963 487h-586l-4 -32q0 -160 65 -248q74 -101 221 -101q64 0 126.5 24t115.5 67l25 -17l-45 -114q-136 -95 -295 -95q-252 0 -382 142.5t-130 398.5q0 219 125 355.5t342 136.5
q215 0 323 -130q99 -116 99 -325v-62zM449 1458h188l254 -360h-119l-229 200l-229 -200h-115zM356 -279q0 66 47 113t113 47q65 0 114 -47t49 -113q0 -67 -48 -115t-115 -48q-66 0 -113 49t-47 114z" />
    <glyph glyph-name=".notdef.102" unicode="&#x1ec8;" horiz-adv-x="700" 
d="M188 -12v1409q25 0 76 -6.5t76 -6.5q27 0 78 6.5t78 6.5v-1409q-27 0 -78 6t-78 6q-25 0 -76 -6t-76 -6zM616 1890l2 -18l-2 -43q0 -41 -59 -96q-43 -41 -107 -78q-39 -19 -55 -41q-14 -27 -18 -35l-9 -35v-28h-51v83q0 29 94 144q46 55 46 115q0 24 -16.5 61t-39.5 49
q-24 19 -74 19q-8 0 -29.5 -17.5t-27.5 -23.5q25 -19 36 -33.5t11 -36.5q0 -37 -31.5 -64.5t-70.5 -27.5q-37 0 -61.5 26.5t-24.5 65.5l4 22q25 52 70 87q69 53 174 53q112 0 178 -53q45 -37 61 -95z" />
    <glyph glyph-name=".notdef.036" unicode="&#x1ec9;" horiz-adv-x="590" 
d="M143 -12v995q25 0 81.5 -4t62.5 -4q35 0 75.5 3t63.5 5v-995q-27 2 -51 4q-72 8 -88 8q-25 0 -72 -6t-72 -6zM558 1464l2 -18l-2 -43q0 -41 -59 -96q-43 -41 -107 -78q-39 -19 -55 -41q-14 -27 -18 -35l-9 -35v-28h-51v84q0 28 94 143q46 55 46 115q0 24 -16.5 61
t-39.5 49q-24 19 -73 19q-9 0 -30.5 -17.5t-27.5 -23.5q25 -19 36 -33t11 -37q0 -37 -31.5 -64.5t-70.5 -27.5q-37 0 -61.5 26.5t-24.5 65.5l4 23q25 51 70 86q69 53 174 53q112 0 178 -53q45 -37 61 -95z" />
    <glyph glyph-name=".notdef.100" unicode="&#x1eca;" horiz-adv-x="700" 
d="M188 -12v1409q25 0 76 -6.5t76 -6.5q27 0 78 6.5t78 6.5v-1409q-27 0 -78 6t-78 6q-25 0 -76 -6t-76 -6zM184 -279q0 66 47 113t113 47q65 0 114 -47t49 -113q0 -67 -48 -115t-115 -48q-66 0 -113 49t-47 114z" />
    <glyph glyph-name=".notdef.034" unicode="&#x1ecb;" horiz-adv-x="590" 
d="M143 -12v995q25 0 81.5 -4t62.5 -4q35 0 75.5 3t63.5 5v-995q-27 2 -51 4q-72 8 -88 8q-25 0 -72 -6t-72 -6zM123 1360q0 65 47 112.5t113 47.5q65 0 114 -47.5t49 -112.5q0 -68 -48 -116t-115 -48q-66 0 -113 49t-47 115zM127 -279q0 66 47 113t113 47q65 0 114 -47
t49 -113q0 -67 -48 -115t-115 -48q-66 0 -113 49t-47 114z" />
    <glyph glyph-name=".notdef.095" unicode="&#x1ecc;" horiz-adv-x="1397" 
d="M1348 705q0 -310 -179 -521q-188 -221 -485 -221q-287 0 -457 193.5t-170 539.5q0 316 174 521q185 217 494 217q326 0 492 -246q131 -195 131 -483zM713 1311q-178 0 -275.5 -168t-97.5 -508q0 -225 80 -375q92 -174 268 -174q186 0 289 199q92 178 92 456
q0 230 -82 385q-96 185 -274 185zM518 -279q0 66 47 113t113 47q65 0 114 -47t49 -113q0 -67 -48 -115t-115 -48q-66 0 -113 49t-47 114z" />
    <glyph glyph-name=".notdef.029" unicode="&#x1ecd;" 
d="M520 -29q-211 0 -335 134.5t-124 361.5q0 244 123 390.5t340 146.5q213 0 338 -131.5t125 -360.5q0 -240 -124 -390.5t-343 -150.5zM532 909q-106 0 -153 -127q-39 -104 -39 -311q0 -154 29 -252q45 -153 151 -153q101 0 150 153q39 125 39 326q0 164 -39 256
q-45 108 -138 108zM352 -279q0 66 47 113t113 47q65 0 114 -47t49 -113q0 -67 -48 -115t-115 -48q-66 0 -113 49t-47 114z" />
    <glyph glyph-name=".notdef.097" unicode="&#x1ece;" horiz-adv-x="1397" 
d="M1348 705q0 -310 -179 -521q-188 -221 -485 -221q-287 0 -457 193.5t-170 539.5q0 316 174 521q185 217 494 217q326 0 492 -246q131 -195 131 -483zM713 1311q-178 0 -275.5 -168t-97.5 -508q0 -225 80 -375q92 -174 268 -174q186 0 289 199q92 178 92 456
q0 230 -82 385q-96 185 -274 185zM998 1890l2 -18l-2 -43q0 -41 -59 -96q-43 -41 -107 -78q-39 -19 -55 -41q-14 -27 -18 -35l-9 -35v-28h-51v83q0 29 94 144q46 55 46 115q0 24 -16.5 61t-39.5 49q-24 19 -74 19q-8 0 -29.5 -17.5t-27.5 -23.5q25 -19 36 -33.5t11 -36.5
q0 -37 -31.5 -64.5t-70.5 -27.5q-37 0 -61.5 26.5t-24.5 65.5l4 22q25 52 70 87q69 53 174 53q112 0 178 -53q45 -37 61 -95z" />
    <glyph glyph-name=".notdef.031" unicode="&#x1ecf;" 
d="M520 -29q-211 0 -335 134.5t-124 361.5q0 244 123 390.5t340 146.5q213 0 338 -131.5t125 -360.5q0 -240 -124 -390.5t-343 -150.5zM532 909q-106 0 -153 -127q-39 -104 -39 -311q0 -154 29 -252q45 -153 151 -153q101 0 150 153q39 125 39 326q0 164 -39 256
q-45 108 -138 108zM798 1464l2 -18l-2 -43q0 -41 -59 -96q-43 -41 -107 -78q-39 -19 -55 -41q-14 -27 -18 -35l-9 -35v-28h-51v84q0 28 94 143q46 55 46 115q0 24 -16.5 61t-39.5 49q-24 19 -73 19q-9 0 -30.5 -17.5t-27.5 -23.5q25 -19 36 -33t11 -37q0 -37 -31.5 -64.5
t-70.5 -27.5q-37 0 -61.5 26.5t-24.5 65.5l4 23q25 51 70 86q69 53 174 53q112 0 178 -53q45 -37 61 -95z" />
    <glyph glyph-name=".notdef.092" unicode="&#x1ed0;" horiz-adv-x="1397" 
d="M1348 705q0 -310 -179 -521q-188 -221 -485 -221q-287 0 -457 193.5t-170 539.5q0 316 174 521q185 217 494 217q326 0 492 -246q131 -195 131 -483zM713 1311q-178 0 -275.5 -168t-97.5 -508q0 -225 80 -375q92 -174 268 -174q186 0 289 199q92 178 92 456
q0 230 -82 385q-96 185 -274 185zM614 1868h192l250 -361h-115l-229 205l-234 -205h-110zM927 1792l266 307q62 74 135 74q37 0 64 -27t27 -63q0 -35 -17.5 -56.5t-89.5 -66.5l-270 -168h-115z" />
    <glyph glyph-name=".notdef.026" unicode="&#x1ed1;" 
d="M520 -29q-211 0 -335 134.5t-124 361.5q0 244 123 390.5t340 146.5q213 0 338 -131.5t125 -360.5q0 -240 -124 -390.5t-343 -150.5zM532 909q-106 0 -153 -127q-39 -104 -39 -311q0 -154 29 -252q45 -153 151 -153q101 0 150 153q39 125 39 326q0 164 -39 256
q-45 108 -138 108zM433 1458h188l254 -360h-119l-229 200l-229 -200h-115zM746 1381l266 307q62 74 135 74q37 0 64 -27t27 -63q0 -35 -17.5 -56.5t-89.5 -66.5l-270 -168h-115z" />
    <glyph glyph-name=".notdef.093" unicode="&#x1ed2;" horiz-adv-x="1397" 
d="M1348 705q0 -310 -179 -521q-188 -221 -485 -221q-287 0 -457 193.5t-170 539.5q0 316 174 521q185 217 494 217q326 0 492 -246q131 -195 131 -483zM713 1311q-178 0 -275.5 -168t-97.5 -508q0 -225 80 -375q92 -174 268 -174q186 0 289 199q92 178 92 456
q0 230 -82 385q-96 185 -274 185zM614 1868h192l250 -361h-115l-229 205l-234 -205h-110zM969 2098l262 -307h-115l-266 168q-56 33 -72 47q-35 33 -35 76q0 36 24.5 63t65.5 27q45 0 76 -19q21 -12 60 -55z" />
    <glyph glyph-name=".notdef.027" unicode="&#x1ed3;" 
d="M520 -29q-211 0 -335 134.5t-124 361.5q0 244 123 390.5t340 146.5q213 0 338 -131.5t125 -360.5q0 -240 -124 -390.5t-343 -150.5zM532 909q-106 0 -153 -127q-39 -104 -39 -311q0 -154 29 -252q45 -153 151 -153q101 0 150 153q39 125 39 326q0 164 -39 256
q-45 108 -138 108zM432 1458h192l250 -361h-115l-229 205l-234 -205h-110zM787 1688l262 -307h-115l-266 168q-56 33 -72 47q-35 33 -35 76q0 36 24.5 63t65.5 27q45 0 76 -19q21 -12 60 -55z" />
    <glyph glyph-name=".notdef.091" unicode="&#x1ed4;" horiz-adv-x="1397" 
d="M1348 705q0 -310 -179 -521q-188 -221 -485 -221q-287 0 -457 193.5t-170 539.5q0 316 174 521q185 217 494 217q326 0 492 -246q131 -195 131 -483zM713 1311q-178 0 -275.5 -168t-97.5 -508q0 -225 80 -375q92 -174 268 -174q186 0 289 199q92 178 92 456
q0 230 -82 385q-96 185 -274 185zM614 1868h192l250 -361h-115l-229 205l-234 -205h-110zM1285 2118l2 -18l-2 -43q0 -41 -59 -96q-43 -41 -107 -78q-39 -19 -55 -41q-14 -27 -18 -35l-9 -35v-28h-51v83q0 29 94 144q46 55 46 115q0 24 -16.5 61t-39.5 49q-24 19 -74 19
q-8 0 -29.5 -17.5t-27.5 -23.5q25 -19 36 -33.5t11 -36.5q0 -37 -31.5 -64.5t-70.5 -27.5q-37 0 -61.5 26.5t-24.5 65.5l4 22q25 52 70 87q69 53 174 53q112 0 178 -53q45 -37 61 -95z" />
    <glyph glyph-name=".notdef.025" unicode="&#x1ed5;" 
d="M520 -29q-211 0 -335 134.5t-124 361.5q0 244 123 390.5t340 146.5q213 0 338 -131.5t125 -360.5q0 -240 -124 -390.5t-343 -150.5zM532 909q-106 0 -153 -127q-39 -104 -39 -311q0 -154 29 -252q45 -153 151 -153q101 0 150 153q39 125 39 326q0 164 -39 256
q-45 108 -138 108zM433 1458h192l250 -361h-115l-229 205l-234 -205h-110zM1104 1708l2 -18l-2 -43q0 -41 -59 -96q-43 -41 -107 -78q-39 -19 -55 -41q-14 -27 -18 -35l-9 -35v-28h-51v83q0 29 94 144q46 55 46 115q0 24 -16.5 61t-39.5 49q-24 19 -74 19q-8 0 -29.5 -17.5
t-27.5 -23.5q25 -19 36 -33.5t11 -36.5q0 -37 -31.5 -64.5t-70.5 -27.5q-37 0 -61.5 26.5t-24.5 65.5l4 22q25 52 70 87q69 53 174 53q112 0 178 -53q45 -37 61 -95z" />
    <glyph glyph-name=".notdef.090" unicode="&#x1ed6;" horiz-adv-x="1397" 
d="M1348 705q0 -310 -179 -521q-188 -221 -485 -221q-287 0 -457 193.5t-170 539.5q0 316 174 521q185 217 494 217q326 0 492 -246q131 -195 131 -483zM713 1311q-178 0 -275.5 -168t-97.5 -508q0 -225 80 -375q92 -174 268 -174q186 0 289 199q92 178 92 456
q0 230 -82 385q-96 185 -274 185zM614 1868h192l250 -361h-115l-229 205l-234 -205h-110zM971 2202h73q-22 -115 -65 -176q-57 -82 -152 -82q-39 0 -71 12q-9 4 -62 30.5t-78 37.5q-49 22 -75 22q-41 0 -61.5 -34.5t-20.5 -63.5h-74q0 106 74 188q59 66 143 66q47 0 107 -27
q43 -22 61 -31q31 -18 57.5 -29t48.5 -11q35 0 60 30q14 19 35 68z" />
    <glyph glyph-name=".notdef.024" unicode="&#x1ed7;" 
d="M520 -29q-211 0 -335 134.5t-124 361.5q0 244 123 390.5t340 146.5q213 0 338 -131.5t125 -360.5q0 -240 -124 -390.5t-343 -150.5zM532 909q-106 0 -153 -127q-39 -104 -39 -311q0 -154 29 -252q45 -153 151 -153q101 0 150 153q39 125 39 326q0 164 -39 256
q-45 108 -138 108zM433 1458h188l254 -360h-119l-229 200l-229 -200h-115zM787 1792h73q-22 -115 -65 -176q-57 -82 -152 -82q-39 0 -71 12q-9 4 -62 30.5t-78 37.5q-49 22 -75 22q-41 0 -61.5 -34.5t-20.5 -63.5h-74q0 106 74 188q59 66 143 66q47 0 107 -27q43 -22 61 -31
q31 -18 57.5 -29t48.5 -11q35 0 60 30q14 19 35 68z" />
    <glyph glyph-name=".notdef.089" unicode="&#x1ed8;" horiz-adv-x="1397" 
d="M1348 705q0 -310 -179 -521q-188 -221 -485 -221q-287 0 -457 193.5t-170 539.5q0 316 174 521q185 217 494 217q326 0 492 -246q131 -195 131 -483zM713 1311q-178 0 -275.5 -168t-97.5 -508q0 -225 80 -375q92 -174 268 -174q186 0 289 199q92 178 92 456
q0 230 -82 385q-96 185 -274 185zM614 1868h192l250 -361h-115l-229 205l-234 -205h-110zM518 -279q0 66 47 113t113 47q65 0 114 -47t49 -113q0 -67 -48 -115t-115 -48q-66 0 -113 49t-47 114z" />
    <glyph glyph-name=".notdef.023" unicode="&#x1ed9;" 
d="M520 -29q-211 0 -335 134.5t-124 361.5q0 244 123 390.5t340 146.5q213 0 338 -131.5t125 -360.5q0 -240 -124 -390.5t-343 -150.5zM532 909q-106 0 -153 -127q-39 -104 -39 -311q0 -154 29 -252q45 -153 151 -153q101 0 150 153q39 125 39 326q0 164 -39 256
q-45 108 -138 108zM433 1458h188l254 -360h-119l-229 200l-229 -200h-115zM352 -279q0 66 47 113t113 47q65 0 114 -47t49 -113q0 -67 -48 -115t-115 -48q-66 0 -113 49t-47 114z" />
    <glyph glyph-name=".notdef.075" unicode="&#x1eda;" horiz-adv-x="1397" 
d="M1151 1262q37 0 82 45q16 24 16 65q0 27 -5 51.5t-13 37t-39 14.5t-33 8v123q25 -4 36 -6.5t34 -2.5q24 0 70.5 4.5t56.5 4.5h61l-4 -33v-86q0 -57 -15.5 -116.5t-45 -95.5t-56.5 -52q-43 -27 -96 -27q74 -109 111 -234.5t37 -256.5q0 -310 -179 -521
q-188 -221 -485 -221q-287 0 -457 193.5t-170 539.5q0 316 174 521q185 217 494 217q139 0 244.5 -45.5t181.5 -126.5zM713 1311q-178 0 -275.5 -168t-97.5 -508q0 -225 80 -375q92 -174 268 -174q186 0 289 199q92 178 92 456q0 230 -82 385q-96 185 -274 185zM497 1528
l266 307q62 74 135 74q37 0 64 -27t27 -63q0 -35 -17.5 -56.5t-89.5 -66.5l-270 -168h-115z" />
    <glyph glyph-name=".notdef.009" unicode="&#x1edb;" 
d="M831 889q27 0 50.5 9t40 32.5t16.5 48.5q0 37 -16 53q-7 10 -37.5 12.5t-32.5 8.5v123q41 -9 66 -9q18 0 44.5 4.5t49.5 4.5h57l-4 -29v-94q0 -64 -11.5 -94.5t-37.5 -61.5q-43 -49 -45 -51q-25 -23 -74 -23q90 -129 90 -311q0 -240 -124 -390.5t-343 -150.5
q-211 0 -335 134.5t-124 361.5q0 244 123 390.5t340 146.5q187 0 307 -115zM532 909q-106 0 -153 -127q-39 -104 -39 -311q0 -154 29 -252q45 -153 151 -153q101 0 150 153q39 125 39 326q0 164 -39 256q-45 108 -138 108zM319 1118l262 303q31 33 45 45q35 29 91 29
q41 0 65.5 -24.5t24.5 -65.5q0 -43 -35 -74q-6 -6 -72 -49l-266 -164h-115z" />
    <glyph glyph-name=".notdef.076" unicode="&#x1edc;" horiz-adv-x="1397" 
d="M1151 1262q37 0 82 45q16 24 16 65q0 27 -5 51.5t-13 37t-39 14.5t-33 8v123q25 -4 36 -6.5t34 -2.5q24 0 70.5 4.5t56.5 4.5h61l-4 -33v-86q0 -57 -15.5 -116.5t-45 -95.5t-56.5 -52q-43 -27 -96 -27q74 -109 111 -234.5t37 -256.5q0 -310 -179 -521
q-188 -221 -485 -221q-287 0 -457 193.5t-170 539.5q0 316 174 521q185 217 494 217q139 0 244.5 -45.5t181.5 -126.5zM713 1311q-178 0 -275.5 -168t-97.5 -508q0 -225 80 -375q92 -174 268 -174q186 0 289 199q92 178 92 456q0 230 -82 385q-96 185 -274 185zM661 1835
l262 -307h-115l-266 168q-56 33 -72 47q-35 33 -35 76q0 36 24.5 63t65.5 27q45 0 76 -19q21 -12 60 -55z" />
    <glyph glyph-name=".notdef.010" unicode="&#x1edd;" 
d="M831 889q27 0 50.5 9t40 32.5t16.5 48.5q0 37 -16 53q-7 10 -37.5 12.5t-32.5 8.5v123q41 -9 66 -9q18 0 44.5 4.5t49.5 4.5h57l-4 -29v-94q0 -64 -11.5 -94.5t-37.5 -61.5q-43 -49 -45 -51q-25 -23 -74 -23q90 -129 90 -311q0 -240 -124 -390.5t-343 -150.5
q-211 0 -335 134.5t-124 361.5q0 244 123 390.5t340 146.5q187 0 307 -115zM532 909q-106 0 -153 -127q-39 -104 -39 -311q0 -154 29 -252q45 -153 151 -153q101 0 150 153q39 125 39 326q0 164 -39 256q-45 108 -138 108zM436 1421l266 -303h-115l-270 164q-35 25 -70 49
q-37 33 -37 74q0 39 26 64.5t64 25.5q46 0 74.5 -17.5t61.5 -56.5z" />
    <glyph glyph-name=".notdef.074" unicode="&#x1ede;" horiz-adv-x="1397" 
d="M1151 1262q37 0 82 45q16 24 16 65q0 27 -5 51.5t-13 37t-39 14.5t-33 8v123q25 -4 36 -6.5t34 -2.5q24 0 70.5 4.5t56.5 4.5h61l-4 -33v-86q0 -57 -15.5 -116.5t-45 -95.5t-56.5 -52q-43 -27 -96 -27q74 -109 111 -234.5t37 -256.5q0 -310 -179 -521
q-188 -221 -485 -221q-287 0 -457 193.5t-170 539.5q0 316 174 521q185 217 494 217q139 0 244.5 -45.5t181.5 -126.5zM713 1311q-178 0 -275.5 -168t-97.5 -508q0 -225 80 -375q92 -174 268 -174q186 0 289 199q92 178 92 456q0 230 -82 385q-96 185 -274 185zM998 1890
l2 -18l-2 -43q0 -41 -59 -96q-43 -41 -107 -78q-39 -19 -55 -41q-14 -27 -18 -35l-9 -35v-28h-51v83q0 29 94 144q46 55 46 115q0 24 -16.5 61t-39.5 49q-24 19 -74 19q-8 0 -29.5 -17.5t-27.5 -23.5q25 -19 36 -33.5t11 -36.5q0 -37 -31.5 -64.5t-70.5 -27.5
q-37 0 -61.5 26.5t-24.5 65.5l4 22q25 52 70 87q69 53 174 53q112 0 178 -53q45 -37 61 -95z" />
    <glyph glyph-name=".notdef.008" unicode="&#x1edf;" 
d="M831 889q27 0 50.5 9t40 32.5t16.5 48.5q0 37 -16 53q-7 10 -37.5 12.5t-32.5 8.5v123q41 -9 66 -9q18 0 44.5 4.5t49.5 4.5h57l-4 -29v-94q0 -64 -11.5 -94.5t-37.5 -61.5q-43 -49 -45 -51q-25 -23 -74 -23q90 -129 90 -311q0 -240 -124 -390.5t-343 -150.5
q-211 0 -335 134.5t-124 361.5q0 244 123 390.5t340 146.5q187 0 307 -115zM532 909q-106 0 -153 -127q-39 -104 -39 -311q0 -154 29 -252q45 -153 151 -153q101 0 150 153q39 125 39 326q0 164 -39 256q-45 108 -138 108zM798 1464l2 -18l-2 -43q0 -41 -59 -96
q-43 -41 -107 -78q-39 -19 -55 -41q-14 -27 -18 -35l-9 -35v-28h-51v84q0 28 94 143q46 55 46 115q0 24 -16.5 61t-39.5 49q-24 19 -73 19q-9 0 -30.5 -17.5t-27.5 -23.5q25 -19 36 -33t11 -37q0 -37 -31.5 -64.5t-70.5 -27.5q-37 0 -61.5 26.5t-24.5 65.5l4 23q25 51 70 86
q69 53 174 53q112 0 178 -53q45 -37 61 -95z" />
    <glyph glyph-name=".notdef.073" unicode="&#x1ee0;" horiz-adv-x="1397" 
d="M1151 1262q37 0 82 45q16 24 16 65q0 27 -5 51.5t-13 37t-39 14.5t-33 8v123q25 -4 36 -6.5t34 -2.5q24 0 70.5 4.5t56.5 4.5h61l-4 -33v-86q0 -57 -15.5 -116.5t-45 -95.5t-56.5 -52q-43 -27 -96 -27q74 -109 111 -234.5t37 -256.5q0 -310 -179 -521
q-188 -221 -485 -221q-287 0 -457 193.5t-170 539.5q0 316 174 521q185 217 494 217q139 0 244.5 -45.5t181.5 -126.5zM713 1311q-178 0 -275.5 -168t-97.5 -508q0 -225 80 -375q92 -174 268 -174q186 0 289 199q92 178 92 456q0 230 -82 385q-96 185 -274 185zM987 1827h73
q-22 -115 -65 -176q-57 -82 -152 -82q-39 0 -71 12q-9 4 -62 30.5t-78 37.5q-49 22 -75 22q-41 0 -61.5 -34.5t-20.5 -63.5h-74q0 106 74 188q59 66 143 66q47 0 107 -27q43 -22 61 -31q31 -18 57.5 -29t48.5 -11q35 0 60 30q14 19 35 68z" />
    <glyph glyph-name=".notdef.007" unicode="&#x1ee1;" 
d="M831 889q27 0 50.5 9t40 32.5t16.5 48.5q0 37 -16 53q-7 10 -37.5 12.5t-32.5 8.5v123q41 -9 66 -9q18 0 44.5 4.5t49.5 4.5h57l-4 -29v-94q0 -64 -11.5 -94.5t-37.5 -61.5q-43 -49 -45 -51q-25 -23 -74 -23q90 -129 90 -311q0 -240 -124 -390.5t-343 -150.5
q-211 0 -335 134.5t-124 361.5q0 244 123 390.5t340 146.5q187 0 307 -115zM532 909q-106 0 -153 -127q-39 -104 -39 -311q0 -154 29 -252q45 -153 151 -153q101 0 150 153q39 125 39 326q0 164 -39 256q-45 108 -138 108zM778 1393h74q-22 -115 -65 -176q-58 -82 -152 -82
q-39 0 -72 12l-61 30.5t-78 36.5q-49 23 -76 23q-41 0 -61.5 -35t-20.5 -63h-73q0 106 73 188q60 66 144 66q47 0 106 -27q43 -23 62 -31q30 -18 57 -29.5t49 -11.5q35 0 60 31q14 18 34 68z" />
    <glyph glyph-name=".notdef.072" unicode="&#x1ee2;" horiz-adv-x="1397" 
d="M1151 1262q37 0 82 45q16 24 16 65q0 27 -5 51.5t-13 37t-39 14.5t-33 8v123q25 -4 36 -6.5t34 -2.5q24 0 70.5 4.5t56.5 4.5h61l-4 -33v-86q0 -57 -15.5 -116.5t-45 -95.5t-56.5 -52q-43 -27 -96 -27q74 -109 111 -234.5t37 -256.5q0 -310 -179 -521
q-188 -221 -485 -221q-287 0 -457 193.5t-170 539.5q0 316 174 521q185 217 494 217q139 0 244.5 -45.5t181.5 -126.5zM713 1311q-178 0 -275.5 -168t-97.5 -508q0 -225 80 -375q92 -174 268 -174q186 0 289 199q92 178 92 456q0 230 -82 385q-96 185 -274 185zM518 -279
q0 66 47 113t113 47q65 0 114 -47t49 -113q0 -67 -48 -115t-115 -48q-66 0 -113 49t-47 114z" />
    <glyph glyph-name=".notdef.006" unicode="&#x1ee3;" 
d="M831 889q27 0 50.5 9t40 32.5t16.5 48.5q0 37 -16 53q-7 10 -37.5 12.5t-32.5 8.5v123q41 -9 66 -9q18 0 44.5 4.5t49.5 4.5h57l-4 -29v-94q0 -64 -11.5 -94.5t-37.5 -61.5q-43 -49 -45 -51q-25 -23 -74 -23q90 -129 90 -311q0 -240 -124 -390.5t-343 -150.5
q-211 0 -335 134.5t-124 361.5q0 244 123 390.5t340 146.5q187 0 307 -115zM532 909q-106 0 -153 -127q-39 -104 -39 -311q0 -154 29 -252q45 -153 151 -153q101 0 150 153q39 125 39 326q0 164 -39 256q-45 108 -138 108zM352 -279q0 66 47 113t113 47q65 0 114 -47
t49 -113q0 -67 -48 -115t-115 -48q-66 0 -113 49t-47 114z" />
    <glyph glyph-name=".notdef.084" unicode="&#x1ee4;" horiz-adv-x="1397" 
d="M160 561v836q67 -6 135 -13q67 7 135 13v-582q0 -98 1 -199.5t11 -189.5q21 -100 31 -127q21 -57 68 -106q84 -91 204 -91q127 0 201 57.5t123 192.5q16 45 24.5 145.5t8.5 276.5v623q24 -4 35.5 -6t33.5 -2q19 0 40.5 3t33.5 5v-729q0 -230 -24 -330q-39 -164 -168 -264
q-70 -60 -157 -85.5t-187 -25.5q-189 0 -318 72q-158 88 -203 272q-14 62 -21 122t-7 132zM544 -279q0 66 47 113t113 47q65 0 114 -47t49 -113q0 -67 -48 -115t-115 -48q-66 0 -113 49t-47 114z" />
    <glyph glyph-name=".notdef.018" unicode="&#x1ee5;" horiz-adv-x="1049" 
d="M934 983v-995q-66 6 -131 12q-27 0 -62.5 -4t-68.5 -8v151q-68 -73 -99 -98q-86 -70 -200 -70q-80 0 -149.5 32t-112.5 95q-31 47 -44.5 112.5t-13.5 137.5l4 70v565l136 -8q24 0 78.5 4t60.5 4v-565q0 -92 3 -115.5t17 -52.5q21 -53 53.5 -80t86.5 -27q112 0 149 105
q23 63 23 203v532q32 -4 63 -6t72 -2q32 0 72 3t63 5zM305 -279q0 66 47 113t113 47q65 0 114 -47t49 -113q0 -67 -48 -115t-115 -48q-66 0 -113 49t-47 114z" />
    <glyph glyph-name=".notdef.086" unicode="&#x1ee6;" horiz-adv-x="1397" 
d="M160 561v836q67 -6 135 -13q67 7 135 13v-582q0 -98 1 -199.5t11 -189.5q21 -100 31 -127q21 -57 68 -106q84 -91 204 -91q127 0 201 57.5t123 192.5q16 45 24.5 145.5t8.5 276.5v623q24 -4 35.5 -6t33.5 -2q19 0 40.5 3t33.5 5v-729q0 -230 -24 -330q-39 -164 -168 -264
q-70 -60 -157 -85.5t-187 -25.5q-189 0 -318 72q-158 88 -203 272q-14 62 -21 122t-7 132zM998 1890l2 -18l-2 -43q0 -41 -59 -96q-43 -41 -107 -78q-39 -19 -55 -41q-14 -27 -18 -35l-9 -35v-28h-51v83q0 29 94 144q46 55 46 115q0 24 -16.5 61t-39.5 49q-24 19 -74 19
q-8 0 -29.5 -17.5t-27.5 -23.5q25 -19 36 -33.5t11 -36.5q0 -37 -31.5 -64.5t-70.5 -27.5q-37 0 -61.5 26.5t-24.5 65.5l4 22q25 52 70 87q69 53 174 53q112 0 178 -53q45 -37 61 -95z" />
    <glyph glyph-name=".notdef.020" unicode="&#x1ee7;" horiz-adv-x="1049" 
d="M934 983v-995q-66 6 -131 12q-27 0 -62.5 -4t-68.5 -8v151q-68 -73 -99 -98q-86 -70 -200 -70q-80 0 -149.5 32t-112.5 95q-31 47 -44.5 112.5t-13.5 137.5l4 70v565l136 -8q24 0 78.5 4t60.5 4v-565q0 -92 3 -115.5t17 -52.5q21 -53 53.5 -80t86.5 -27q112 0 149 105
q23 63 23 203v532q32 -4 63 -6t72 -2q32 0 72 3t63 5zM770 1464l2 -18l-2 -43q0 -41 -59 -96q-43 -41 -107 -78q-39 -19 -55 -41q-14 -27 -18 -35l-9 -35v-28h-51v84q0 28 94 143q46 55 46 115q0 24 -16.5 61t-39.5 49q-24 19 -73 19q-9 0 -30.5 -17.5t-27.5 -23.5
q25 -19 36 -33t11 -37q0 -37 -31.5 -64.5t-70.5 -27.5q-37 0 -61.5 26.5t-24.5 65.5l4 23q25 51 70 86q69 53 174 53q112 0 178 -53q45 -37 61 -95z" />
    <glyph glyph-name=".notdef.081" unicode="&#x1ee8;" horiz-adv-x="1397" 
d="M1245 1368h25q24 0 45 21q16 24 16 65q0 19 -20 45q-6 10 -37 12t-33 9v122q25 -4 36 -6t34 -2q22 0 44.5 4t49.5 4h61l-4 -32v-86q0 -58 -9 -93.5t-44 -74.5q-12 -15 -31 -39q-4 -4 -30 -19q-9 -4 -51 -10t-52 -6v-614q0 -230 -24 -330q-39 -164 -168 -264
q-70 -60 -157 -85.5t-187 -25.5q-189 0 -318 72q-158 88 -203 272q-14 62 -21 122t-7 132v836q67 -6 135 -13q67 7 135 13v-582q0 -98 1 -199.5t11 -189.5q21 -100 31 -127q21 -57 68 -106q84 -91 204 -91q127 0 201 57.5t123 192.5q16 45 24.5 145.5t8.5 276.5v623
q24 -4 35.5 -6t33.5 -2q19 0 40.5 3t33.5 5v-29zM497 1528l266 307q62 74 135 74q37 0 64 -27t27 -63q0 -35 -17.5 -56.5t-89.5 -66.5l-270 -168h-115z" />
    <glyph glyph-name=".notdef.015" unicode="&#x1ee9;" horiz-adv-x="1049" 
d="M934 950q33 6 42 8.5t24.5 24t15.5 57.5q0 41 -12 54q-7 10 -37.5 12t-32.5 8v123q41 -8 65 -8l91 4h57l-4 -29v-94q0 -45 -13.5 -85t-48.5 -83q-26 -33 -56 -45t-91 -12v-897q-66 6 -131 12q-27 0 -62.5 -4t-68.5 -8v151q-68 -73 -99 -98q-86 -70 -200 -70
q-80 0 -149.5 32t-112.5 95q-31 47 -44.5 112.5t-13.5 137.5l4 70v565l136 -8q24 0 78.5 4t60.5 4v-565q0 -92 3 -115.5t17 -52.5q21 -53 53.5 -80t86.5 -27q112 0 149 105q23 63 23 203v532q32 -4 63 -6t72 -2q32 0 72 3t63 5v-33zM319 1118l262 303q31 33 45 45
q35 29 91 29q41 0 65.5 -24.5t24.5 -65.5q0 -43 -35 -74q-6 -6 -72 -49l-266 -164h-115z" />
    <glyph glyph-name=".notdef.082" unicode="&#x1eea;" horiz-adv-x="1397" 
d="M1245 1368h25q24 0 45 21q16 24 16 65q0 19 -20 45q-6 10 -37 12t-33 9v122q25 -4 36 -6t34 -2q22 0 44.5 4t49.5 4h61l-4 -32v-86q0 -58 -9 -93.5t-44 -74.5q-12 -15 -31 -39q-4 -4 -30 -19q-9 -4 -51 -10t-52 -6v-614q0 -230 -24 -330q-39 -164 -168 -264
q-70 -60 -157 -85.5t-187 -25.5q-189 0 -318 72q-158 88 -203 272q-14 62 -21 122t-7 132v836q67 -6 135 -13q67 7 135 13v-582q0 -98 1 -199.5t11 -189.5q21 -100 31 -127q21 -57 68 -106q84 -91 204 -91q127 0 201 57.5t123 192.5q16 45 24.5 145.5t8.5 276.5v623
q24 -4 35.5 -6t33.5 -2q19 0 40.5 3t33.5 5v-29zM622 1835l262 -307h-115l-266 168q-56 33 -72 47q-35 33 -35 76q0 36 24.5 63t65.5 27q45 0 76 -19q21 -12 60 -55z" />
    <glyph glyph-name=".notdef.016" unicode="&#x1eeb;" horiz-adv-x="1049" 
d="M934 950q33 6 42 8.5t24.5 24t15.5 57.5q0 41 -12 54q-7 10 -37.5 12t-32.5 8v123q41 -8 65 -8l91 4h57l-4 -29v-94q0 -45 -13.5 -85t-48.5 -83q-26 -33 -56 -45t-91 -12v-897q-66 6 -131 12q-27 0 -62.5 -4t-68.5 -8v151q-68 -73 -99 -98q-86 -70 -200 -70
q-80 0 -149.5 32t-112.5 95q-31 47 -44.5 112.5t-13.5 137.5l4 70v565l136 -8q24 0 78.5 4t60.5 4v-565q0 -92 3 -115.5t17 -52.5q21 -53 53.5 -80t86.5 -27q112 0 149 105q23 63 23 203v532q32 -4 63 -6t72 -2q32 0 72 3t63 5v-33zM436 1421l266 -303h-115l-270 164
q-35 25 -70 49q-37 33 -37 74q0 39 26 64.5t64 25.5q46 0 74.5 -17.5t61.5 -56.5z" />
    <glyph glyph-name=".notdef.080" unicode="&#x1eec;" horiz-adv-x="1397" 
d="M1245 1368h25q24 0 45 21q16 24 16 65q0 19 -20 45q-6 10 -37 12t-33 9v122q25 -4 36 -6t34 -2q22 0 44.5 4t49.5 4h61l-4 -32v-86q0 -58 -9 -93.5t-44 -74.5q-12 -15 -31 -39q-4 -4 -30 -19q-9 -4 -51 -10t-52 -6v-614q0 -230 -24 -330q-39 -164 -168 -264
q-70 -60 -157 -85.5t-187 -25.5q-189 0 -318 72q-158 88 -203 272q-14 62 -21 122t-7 132v836q67 -6 135 -13q67 7 135 13v-582q0 -98 1 -199.5t11 -189.5q21 -100 31 -127q21 -57 68 -106q84 -91 204 -91q127 0 201 57.5t123 192.5q16 45 24.5 145.5t8.5 276.5v623
q24 -4 35.5 -6t33.5 -2q19 0 40.5 3t33.5 5v-29zM998 1890l2 -18l-2 -43q0 -41 -59 -96q-43 -41 -107 -78q-39 -19 -55 -41q-14 -27 -18 -35l-9 -35v-28h-51v83q0 29 94 144q46 55 46 115q0 24 -16.5 61t-39.5 49q-24 19 -74 19q-8 0 -29.5 -17.5t-27.5 -23.5
q25 -19 36 -33.5t11 -36.5q0 -37 -31.5 -64.5t-70.5 -27.5q-37 0 -61.5 26.5t-24.5 65.5l4 22q25 52 70 87q69 53 174 53q112 0 178 -53q45 -37 61 -95z" />
    <glyph glyph-name=".notdef.014" unicode="&#x1eed;" horiz-adv-x="1049" 
d="M934 950q33 6 42 8.5t24.5 24t15.5 57.5q0 41 -12 54q-7 10 -37.5 12t-32.5 8v123q41 -8 65 -8l91 4h57l-4 -29v-94q0 -45 -13.5 -85t-48.5 -83q-26 -33 -56 -45t-91 -12v-897q-66 6 -131 12q-27 0 -62.5 -4t-68.5 -8v151q-68 -73 -99 -98q-86 -70 -200 -70
q-80 0 -149.5 32t-112.5 95q-31 47 -44.5 112.5t-13.5 137.5l4 70v565l136 -8q24 0 78.5 4t60.5 4v-565q0 -92 3 -115.5t17 -52.5q21 -53 53.5 -80t86.5 -27q112 0 149 105q23 63 23 203v532q32 -4 63 -6t72 -2q32 0 72 3t63 5v-33zM770 1464l2 -18l-2 -43q0 -41 -59 -96
q-43 -41 -107 -78q-39 -19 -55 -41q-14 -27 -18 -35l-9 -35v-28h-51v84q0 28 94 143q46 55 46 115q0 24 -16.5 61t-39.5 49q-24 19 -73 19q-9 0 -30.5 -17.5t-27.5 -23.5q25 -19 36 -33t11 -37q0 -37 -31.5 -64.5t-70.5 -27.5q-37 0 -61.5 26.5t-24.5 65.5l4 23q25 51 70 86
q69 53 174 53q112 0 178 -53q45 -37 61 -95z" />
    <glyph glyph-name=".notdef.079" unicode="&#x1eee;" horiz-adv-x="1397" 
d="M1245 1368h25q24 0 45 21q16 24 16 65q0 19 -20 45q-6 10 -37 12t-33 9v122q25 -4 36 -6t34 -2q22 0 44.5 4t49.5 4h61l-4 -32v-86q0 -58 -9 -93.5t-44 -74.5q-12 -15 -31 -39q-4 -4 -30 -19q-9 -4 -51 -10t-52 -6v-614q0 -230 -24 -330q-39 -164 -168 -264
q-70 -60 -157 -85.5t-187 -25.5q-189 0 -318 72q-158 88 -203 272q-14 62 -21 122t-7 132v836q67 -6 135 -13q67 7 135 13v-582q0 -98 1 -199.5t11 -189.5q21 -100 31 -127q21 -57 68 -106q84 -91 204 -91q127 0 201 57.5t123 192.5q16 45 24.5 145.5t8.5 276.5v623
q24 -4 35.5 -6t33.5 -2q19 0 40.5 3t33.5 5v-29zM987 1827h73q-22 -115 -65 -176q-57 -82 -152 -82q-39 0 -71 12q-9 4 -62 30.5t-78 37.5q-49 22 -75 22q-41 0 -61.5 -34.5t-20.5 -63.5h-74q0 106 74 188q59 66 143 66q47 0 107 -27q43 -22 61 -31q31 -18 57.5 -29
t48.5 -11q35 0 60 30q14 19 35 68z" />
    <glyph glyph-name=".notdef.013" unicode="&#x1eef;" horiz-adv-x="1049" 
d="M934 950q33 6 42 8.5t24.5 24t15.5 57.5q0 41 -12 54q-7 10 -37.5 12t-32.5 8v123q41 -8 65 -8l91 4h57l-4 -29v-94q0 -45 -13.5 -85t-48.5 -83q-26 -33 -56 -45t-91 -12v-897q-66 6 -131 12q-27 0 -62.5 -4t-68.5 -8v151q-68 -73 -99 -98q-86 -70 -200 -70
q-80 0 -149.5 32t-112.5 95q-31 47 -44.5 112.5t-13.5 137.5l4 70v565l136 -8q24 0 78.5 4t60.5 4v-565q0 -92 3 -115.5t17 -52.5q21 -53 53.5 -80t86.5 -27q112 0 149 105q23 63 23 203v532q32 -4 63 -6t72 -2q32 0 72 3t63 5v-33zM778 1393h74q-22 -115 -65 -176
q-58 -82 -152 -82q-39 0 -72 12l-61 30.5t-78 36.5q-49 23 -76 23q-41 0 -61.5 -35t-20.5 -63h-73q0 106 73 188q60 66 144 66q47 0 106 -27q43 -23 62 -31q30 -18 57 -29.5t49 -11.5q35 0 60 31q14 18 34 68z" />
    <glyph glyph-name=".notdef.078" unicode="&#x1ef0;" horiz-adv-x="1397" 
d="M1245 1368h25q24 0 45 21q16 24 16 65q0 19 -20 45q-6 10 -37 12t-33 9v122q25 -4 36 -6t34 -2q22 0 44.5 4t49.5 4h61l-4 -32v-86q0 -58 -9 -93.5t-44 -74.5q-12 -15 -31 -39q-4 -4 -30 -19q-9 -4 -51 -10t-52 -6v-614q0 -230 -24 -330q-39 -164 -168 -264
q-70 -60 -157 -85.5t-187 -25.5q-189 0 -318 72q-158 88 -203 272q-14 62 -21 122t-7 132v836q67 -6 135 -13q67 7 135 13v-582q0 -98 1 -199.5t11 -189.5q21 -100 31 -127q21 -57 68 -106q84 -91 204 -91q127 0 201 57.5t123 192.5q16 45 24.5 145.5t8.5 276.5v623
q24 -4 35.5 -6t33.5 -2q19 0 40.5 3t33.5 5v-29zM544 -279q0 66 47 113t113 47q65 0 114 -47t49 -113q0 -67 -48 -115t-115 -48q-66 0 -113 49t-47 114z" />
    <glyph glyph-name=".notdef.012" unicode="&#x1ef1;" horiz-adv-x="1049" 
d="M934 950q33 6 42 8.5t24.5 24t15.5 57.5q0 41 -12 54q-7 10 -37.5 12t-32.5 8v123q41 -8 65 -8l91 4h57l-4 -29v-94q0 -45 -13.5 -85t-48.5 -83q-26 -33 -56 -45t-91 -12v-897q-66 6 -131 12q-27 0 -62.5 -4t-68.5 -8v151q-68 -73 -99 -98q-86 -70 -200 -70
q-80 0 -149.5 32t-112.5 95q-31 47 -44.5 112.5t-13.5 137.5l4 70v565l136 -8q24 0 78.5 4t60.5 4v-565q0 -92 3 -115.5t17 -52.5q21 -53 53.5 -80t86.5 -27q112 0 149 105q23 63 23 203v532q32 -4 63 -6t72 -2q32 0 72 3t63 5v-33zM305 -279q0 66 47 113t113 47
q65 0 114 -47t49 -113q0 -67 -48 -115t-115 -48q-66 0 -113 49t-47 114z" />
    <glyph glyph-name=".notdef.071" unicode="&#x1ef2;" horiz-adv-x="1376" 
d="M827 623v-635q-26 0 -77.5 6t-77.5 6q-25 0 -76 -6t-76 -6v594q-45 71 -162 268q-96 162 -161 272q-80 138 -160 275q49 0 91 -4t101 -9q33 0 98.5 6.5t98.5 6.5q84 -158 184 -365q52 -102 80 -155q37 -70 55 -91q62 72 205 363q70 141 119 248q27 -4 50.5 -6t56.5 -2
q26 0 57 3t49 5q-74 -123 -156 -258q-106 -176 -155 -258q-86 -148 -144 -258zM622 1835l262 -307h-115l-266 168q-56 33 -72 47q-35 33 -35 76q0 36 24.5 63t65.5 27q45 0 76 -19q21 -12 60 -55z" />
    <glyph glyph-name=".notdef.005" unicode="&#x1ef3;" 
d="M193 -532l262 528l-414 987q25 0 86 -4t70 -4q24 0 85.5 4t69.5 4q54 -152 88.5 -245t157.5 -390l78 209q41 107 59 158q47 125 96 268q23 -4 42.5 -4h39.5h33h27q18 4 26 4l-208 -467q-129 -295 -223.5 -524.5t-202.5 -523.5q-23 4 -41.5 6t-44.5 2q-21 0 -46.5 -3
t-39.5 -5zM436 1421l266 -303h-115l-270 164q-35 25 -70 49q-37 33 -37 74q0 39 26 64.5t64 25.5q46 0 74.5 -17.5t61.5 -56.5z" />
    <glyph glyph-name=".notdef.067" unicode="&#x1ef4;" horiz-adv-x="1376" 
d="M827 623v-635q-26 0 -77.5 6t-77.5 6q-25 0 -76 -6t-76 -6v594q-45 71 -162 268q-96 162 -161 272q-80 138 -160 275q49 0 91 -4t101 -9q33 0 98.5 6.5t98.5 6.5q84 -158 184 -365q52 -102 80 -155q37 -70 55 -91q62 72 205 363q70 141 119 248q27 -4 50.5 -6t56.5 -2
q26 0 57 3t49 5q-74 -123 -156 -258q-106 -176 -155 -258q-86 -148 -144 -258zM516 -279q0 66 47 113t113 47q65 0 114 -47t49 -113q0 -67 -48 -115t-115 -48q-66 0 -113 49t-47 114z" />
    <glyph glyph-name=".notdef.001" unicode="&#x1ef5;" 
d="M193 -532l262 528l-414 987q25 0 86 -4t70 -4q24 0 85.5 4t69.5 4q54 -152 88.5 -245t157.5 -390l78 209q41 107 59 158q47 125 96 268q23 -4 42.5 -4h39.5h33h27q18 4 26 4l-208 -467q-129 -295 -223.5 -524.5t-202.5 -523.5q-23 4 -41.5 6t-44.5 2q-21 0 -46.5 -3
t-39.5 -5zM562 -279q0 66 47 113t113 47q65 0 114 -47t49 -113q0 -67 -48 -115t-115 -48q-66 0 -113 49t-47 114z" />
    <glyph glyph-name=".notdef.069" unicode="&#x1ef6;" horiz-adv-x="1376" 
d="M827 623v-635q-26 0 -77.5 6t-77.5 6q-25 0 -76 -6t-76 -6v594q-45 71 -162 268q-96 162 -161 272q-80 138 -160 275q49 0 91 -4t101 -9q33 0 98.5 6.5t98.5 6.5q84 -158 184 -365q52 -102 80 -155q37 -70 55 -91q62 72 205 363q70 141 119 248q27 -4 50.5 -6t56.5 -2
q26 0 57 3t49 5q-74 -123 -156 -258q-106 -176 -155 -258q-86 -148 -144 -258zM964 1890l2 -18l-2 -43q0 -41 -59 -96q-43 -41 -107 -78q-39 -19 -55 -41q-14 -27 -18 -35l-9 -35v-28h-51v83q0 29 94 144q46 55 46 115q0 24 -16.5 61t-39.5 49q-24 19 -74 19
q-8 0 -29.5 -17.5t-27.5 -23.5q25 -19 36 -33.5t11 -36.5q0 -37 -31.5 -64.5t-70.5 -27.5q-37 0 -61.5 26.5t-24.5 65.5l4 22q25 52 70 87q69 53 174 53q112 0 178 -53q45 -37 61 -95z" />
    <glyph glyph-name=".notdef.003" unicode="&#x1ef7;" 
d="M193 -532l262 528l-414 987q25 0 86 -4t70 -4q24 0 85.5 4t69.5 4q54 -152 88.5 -245t157.5 -390l78 209q41 107 59 158q47 125 96 268q23 -4 42.5 -4h39.5h33h27q18 4 26 4l-208 -467q-129 -295 -223.5 -524.5t-202.5 -523.5q-23 4 -41.5 6t-44.5 2q-21 0 -46.5 -3
t-39.5 -5zM821 1464l2 -18l-2 -43q0 -41 -59 -96q-43 -41 -107 -78q-39 -19 -55 -41q-14 -27 -18 -35l-9 -35v-28h-51v84q0 28 94 143q46 55 46 115q0 24 -16.5 61t-39.5 49q-24 19 -73 19q-9 0 -30.5 -17.5t-27.5 -23.5q25 -19 36 -33t11 -37q0 -37 -31.5 -64.5
t-70.5 -27.5q-37 0 -61.5 26.5t-24.5 65.5l4 23q25 51 70 86q69 53 174 53q112 0 178 -53q45 -37 61 -95z" />
    <glyph glyph-name=".notdef.068" unicode="&#x1ef8;" horiz-adv-x="1376" 
d="M827 623v-635q-26 0 -77.5 6t-77.5 6q-25 0 -76 -6t-76 -6v594q-45 71 -162 268q-96 162 -161 272q-80 138 -160 275q49 0 91 -4t101 -9q33 0 98.5 6.5t98.5 6.5q84 -158 184 -365q52 -102 80 -155q37 -70 55 -91q62 72 205 363q70 141 119 248q27 -4 50.5 -6t56.5 -2
q26 0 57 3t49 5q-74 -123 -156 -258q-106 -176 -155 -258q-86 -148 -144 -258zM987 1827h73q-22 -115 -65 -176q-57 -82 -152 -82q-39 0 -71 12q-9 4 -62 30.5t-78 37.5q-49 22 -75 22q-41 0 -61.5 -34.5t-20.5 -63.5h-74q0 106 74 188q59 66 143 66q47 0 107 -27
q43 -22 61 -31q31 -18 57.5 -29t48.5 -11q35 0 60 30q14 19 35 68z" />
    <glyph glyph-name=".notdef.002" unicode="&#x1ef9;" 
d="M193 -532l262 528l-414 987q25 0 86 -4t70 -4q24 0 85.5 4t69.5 4q54 -152 88.5 -245t157.5 -390l78 209q41 107 59 158q47 125 96 268q23 -4 42.5 -4h39.5h33h27q18 4 26 4l-208 -467q-129 -295 -223.5 -524.5t-202.5 -523.5q-23 4 -41.5 6t-44.5 2q-21 0 -46.5 -3
t-39.5 -5zM778 1393h74q-22 -115 -65 -176q-58 -82 -152 -82q-39 0 -72 12l-61 30.5t-78 36.5q-49 23 -76 23q-41 0 -61.5 -35t-20.5 -63h-73q0 106 73 188q60 66 144 66q47 0 106 -27q43 -23 62 -31q30 -18 57 -29.5t49 -11.5q35 0 60 31q14 18 34 68z" />
    <glyph glyph-name="quoteleft" unicode="&#x2018;" horiz-adv-x="590" 
d="M496 1421l-90 -377q-13 -51 -25 -98t-33.5 -98t-51.5 -74.5t-83 -23.5t-94 36.5t-41 85.5q0 35 20 70q58 88 127 191q15 22 221 313z" />
    <glyph glyph-name="quoteright" unicode="&#x2019;" horiz-adv-x="590" 
d="M74 782l94 381q12 49 25.5 100.5t34 99.5t49 69.5t79.5 21.5q54 0 95 -39t41 -88q0 -39 -17 -65q-164 -238 -352 -500z" />
    <glyph glyph-name="quotedblleft" unicode="&#x201c;" 
d="M512 1421l-94 -377q-12 -51 -24.5 -99t-33.5 -101q-22 -49 -50.5 -71.5t-80.5 -22.5q-55 0 -97 36.5t-42 85.5q0 35 21 70q79 119 174 254q118 166 178 250zM934 1421l-90 -377q-13 -51 -25 -98t-33.5 -98t-51 -74.5t-83.5 -23.5q-53 0 -94 36.5t-41 85.5q0 35 21 70
q57 88 127 191q14 22 221 313z" />
    <glyph glyph-name="quotedblright" unicode="&#x201d;" 
d="M516 782l90 381q12 49 25.5 99.5t36.5 97.5q34 94 131 94q53 0 92 -39t39 -88q0 -39 -17 -65q-57 -86 -127 -189q-81 -119 -221 -311zM90 782l94 381q13 49 26 100.5t33.5 99.5t49.5 69.5t80 21.5q53 0 94 -39t41 -88q0 -39 -16 -65q-164 -238 -353 -500z" />
    <glyph glyph-name="ellipsis" unicode="&#x2026;" horiz-adv-x="2052" 
d="M340 -29q-68 0 -116 50.5t-48 117.5q0 68 48 118t116 50q70 0 121 -49t51 -119q0 -71 -50 -119.5t-122 -48.5zM1024 -29q-70 0 -119 49.5t-49 118.5q0 68 50 118t118 50t118 -48t50 -120q0 -71 -48 -119.5t-120 -48.5zM1704 -29q-68 0 -116 50.5t-48 117.5q0 68 48 118
t116 50q70 0 121 -49t51 -119q0 -71 -50 -119.5t-122 -48.5z" />
    <glyph glyph-name="trademark" unicode="&#x2122;" horiz-adv-x="2011" 
d="M1401 823q106 205 141 273q80 157 141 301l54 -8l53 8q45 -406 51 -451q27 -217 55 -385q-26 2 -49.5 5t-52.5 3q-25 0 -53.5 -3t-44.5 -5q0 121 -18.5 272.5t-35.5 292.5q-67 -139 -135 -276q-102 -207 -135 -281h-45q-49 109 -127 265q-67 137 -139 280
q-23 -170 -36 -303t-13 -250q-25 4 -35 6t-23 2q-14 0 -30.5 -3t-26.5 -5q18 101 46 286t77 550q41 -8 53 -8q17 0 49 8q62 -140 134.5 -285zM512 1311v-750q-25 2 -45.5 5t-44.5 3q-25 0 -51.5 -3t-42.5 -5v750q-72 0 -106 -3t-120 -14q9 33 9 49q0 21 -9 54h627
q-8 -33 -8 -54q0 -16 8 -49q-37 4 -108.5 10.5t-108.5 6.5z" />
    <glyph glyph-name="ugrave" horiz-adv-x="582" 
 />
    <glyph glyph-name="uacute" horiz-adv-x="580" 
 />
    <glyph glyph-name="yacute" horiz-adv-x="629" 
 />
  </font>
</defs>
</svg>
